<svg class="animated" id="freepik_stories-dia-de-muertos-candle" xmlns="http://www.w3.org/2000/svg" viewBox="0 0 500 500" version="1.1" xmlns:xlink="http://www.w3.org/1999/xlink" xmlns:svgjs="http://svgjs.com/svgjs"><style>svg#freepik_stories-dia-de-muertos-candle:not(.animated) .animable {opacity: 0;}svg#freepik_stories-dia-de-muertos-candle.animated #freepik--Candles--inject-163 {animation: 0.5s 1 forwards cubic-bezier(.36,-0.01,.5,1.38) slideDown;animation-delay: 0s;}            @keyframes slideDown {                0% {                    opacity: 0;                    transform: translateY(-30px);                }                100% {                    opacity: 1;                    transform: translateY(0);                }            }        .animator-hidden { display: none; }</style><g id="freepik--background-complete--inject-163" class="animable animator-hidden" style="transform-origin: 249.998px 245px;"><path d="M250,359.21A119.21,119.21,0,1,1,369.21,240,119.34,119.34,0,0,1,250,359.21Zm0-237.35A118.14,118.14,0,1,0,368.14,240,118.28,118.28,0,0,0,250,121.86Z" style="fill: rgb(235, 235, 235); transform-origin: 250px 240px;" id="elupzh301q55r" class="animable"></path><path d="M250,346.29A106.29,106.29,0,1,1,356.29,240,106.41,106.41,0,0,1,250,346.29Zm0-211.51A105.22,105.22,0,1,0,355.22,240,105.34,105.34,0,0,0,250,134.78Z" style="fill: rgb(235, 235, 235); transform-origin: 250px 240px;" id="el1rh88xs4yxn" class="animable"></path><g id="elmcmzmapl8zn"><rect x="179.64" y="57.36" width="1.07" height="19.66" style="fill: rgb(235, 235, 235); transform-origin: 180.175px 67.19px; transform: rotate(-22deg);" class="animable"></rect></g><g id="elebdf4mlody6"><rect x="192.67" y="83.2" width="1.07" height="32.43" style="fill: rgb(235, 235, 235); transform-origin: 193.205px 99.415px; transform: rotate(-22deg);" class="animable"></rect></g><g id="elf6kqnq0jzlt"><rect x="77.9" y="157.34" width="1.07" height="19.66" style="fill: rgb(235, 235, 235); transform-origin: 78.435px 167.17px; transform: rotate(-67.0273deg);" class="animable"></rect></g><g id="el1ru9px5ngil"><rect x="109.9" y="164.54" width="1.07" height="32.43" style="fill: rgb(235, 235, 235); transform-origin: 110.435px 180.755px; transform: rotate(-67deg);" class="animable"></rect></g><g id="eloqj22h2dov"><rect x="67.36" y="309.29" width="19.66" height="1.07" style="fill: rgb(235, 235, 235); transform-origin: 77.19px 309.825px; transform: rotate(-22deg);" class="animable"></rect></g><g id="elanvhwhtja9f"><rect x="93.2" y="296.26" width="32.43" height="1.07" style="fill: rgb(235, 235, 235); transform-origin: 109.415px 296.795px; transform: rotate(-22deg);" class="animable"></rect></g><g id="elqlaarffu5vr"><rect x="167.34" y="411.03" width="19.66" height="1.07" style="fill: rgb(235, 235, 235); transform-origin: 177.17px 411.565px; transform: rotate(-67deg);" class="animable"></rect></g><g id="ell8k3upuv30p"><rect x="174.54" y="379.03" width="32.43" height="1.07" style="fill: rgb(235, 235, 235); transform-origin: 190.755px 379.565px; transform: rotate(-67deg);" class="animable"></rect></g><g id="elzgcx224em3"><rect x="319.29" y="402.98" width="1.07" height="19.66" style="fill: rgb(235, 235, 235); transform-origin: 319.825px 412.81px; transform: rotate(-22deg);" class="animable"></rect></g><g id="el1s55fv9eph6"><rect x="306.26" y="364.36" width="1.07" height="32.43" style="fill: rgb(235, 235, 235); transform-origin: 306.795px 380.575px; transform: rotate(-22deg);" class="animable"></rect></g><g id="el17673lerff6"><rect x="421.03" y="303" width="1.07" height="19.66" style="fill: rgb(235, 235, 235); transform-origin: 421.565px 312.83px; transform: rotate(-67deg);" class="animable"></rect></g><g id="elflrgttlbkij"><rect x="389.03" y="283.03" width="1.07" height="32.43" style="fill: rgb(235, 235, 235); transform-origin: 389.565px 299.245px; transform: rotate(-67deg);" class="animable"></rect></g><g id="elzzv047ppp8c"><rect x="412.98" y="169.64" width="19.66" height="1.07" style="fill: rgb(235, 235, 235); transform-origin: 422.81px 170.175px; transform: rotate(-22deg);" class="animable"></rect></g><g id="el8718zssmlyu"><rect x="374.36" y="182.67" width="32.43" height="1.07" style="fill: rgb(235, 235, 235); transform-origin: 390.575px 183.205px; transform: rotate(-22deg);" class="animable"></rect></g><g id="el1kkl95gxlam"><rect x="313" y="67.9" width="19.66" height="1.07" style="fill: rgb(235, 235, 235); transform-origin: 322.83px 68.435px; transform: rotate(-67deg);" class="animable"></rect></g><g id="ell904k2eqbjh"><rect x="293.03" y="99.9" width="32.43" height="1.07" style="fill: rgb(235, 235, 235); transform-origin: 309.245px 100.435px; transform: rotate(-67deg);" class="animable"></rect></g><rect x="249.47" y="28.53" width="1.07" height="48.37" style="fill: rgb(235, 235, 235); transform-origin: 250.005px 52.715px;" id="elkzxvzksizxo" class="animable"></rect><rect x="249.47" y="87.8" width="1.07" height="16.79" style="fill: rgb(235, 235, 235); transform-origin: 250.005px 96.195px;" id="elnw42l39v7j8" class="animable"></rect><g id="el6z90vc4avdf"><rect x="117.03" y="83.39" width="1.07" height="48.37" style="fill: rgb(235, 235, 235); transform-origin: 117.565px 107.575px; transform: rotate(-45deg);" class="animable"></rect></g><g id="elxh9v9xirgz"><rect x="147.78" y="129.92" width="1.07" height="16.79" style="fill: rgb(235, 235, 235); transform-origin: 148.315px 138.315px; transform: rotate(-45deg);" class="animable"></rect></g><rect x="38.53" y="239.47" width="48.37" height="1.07" style="fill: rgb(235, 235, 235); transform-origin: 62.715px 240.005px;" id="el42dhigahn1y" class="animable"></rect><rect x="97.8" y="239.47" width="16.8" height="1.07" style="fill: rgb(235, 235, 235); transform-origin: 106.2px 240.005px;" id="elotzx17pik" class="animable"></rect><g id="eleidsxw9605a"><rect x="93.39" y="371.9" width="48.37" height="1.07" style="fill: rgb(235, 235, 235); transform-origin: 117.575px 372.435px; transform: rotate(-45deg);" class="animable"></rect></g><g id="el3fkczc8c8wk"><rect x="139.92" y="341.15" width="16.79" height="1.07" style="fill: rgb(235, 235, 235); transform-origin: 148.315px 341.685px; transform: rotate(-45deg);" class="animable"></rect></g><rect x="249.47" y="403.1" width="1.07" height="48.37" style="fill: rgb(235, 235, 235); transform-origin: 250.005px 427.285px;" id="elxewlmw8ckcm" class="animable"></rect><rect x="249.47" y="375.41" width="1.07" height="16.8" style="fill: rgb(235, 235, 235); transform-origin: 250.005px 383.81px;" id="eltmow1kpph5" class="animable"></rect><g id="ely0pzrt6zr2p"><rect x="381.9" y="348.25" width="1.07" height="48.37" style="fill: rgb(235, 235, 235); transform-origin: 382.435px 372.435px; transform: rotate(-45deg);" class="animable"></rect></g><g id="elcndexdbeqdo"><rect x="351.15" y="333.29" width="1.07" height="16.79" style="fill: rgb(235, 235, 235); transform-origin: 351.685px 341.685px; transform: rotate(-45deg);" class="animable"></rect></g><rect x="413.1" y="239.47" width="48.37" height="1.07" style="fill: rgb(235, 235, 235); transform-origin: 437.285px 240.005px;" id="elgg7xmyrww4s" class="animable"></rect><rect x="385.41" y="239.47" width="16.79" height="1.07" style="fill: rgb(235, 235, 235); transform-origin: 393.805px 240.005px;" id="el6vkdwbv5zrg" class="animable"></rect><g id="elj8tfo5w3kym"><rect x="358.25" y="107.03" width="48.37" height="1.07" style="fill: rgb(235, 235, 235); transform-origin: 382.435px 107.565px; transform: rotate(-45deg);" class="animable"></rect></g><g id="el3bnnuddkvbl"><rect x="343.29" y="137.78" width="16.79" height="1.07" style="fill: rgb(235, 235, 235); transform-origin: 351.685px 138.315px; transform: rotate(-45deg);" class="animable"></rect></g><path d="M252.44,240a2.44,2.44,0,1,1-2.44-2.44A2.44,2.44,0,0,1,252.44,240Z" style="fill: rgb(235, 235, 235); transform-origin: 250px 240px;" id="elqul341840n" class="animable"></path><g id="ela1df7qom87t"><path d="M360.75,112.57c31.9-4.39,50.62,12.91,55.93,25.77s10.73,37.11-2.33,53.06c-12.33,15.07-40.65,33-73.74,17.92-18.91-8.61-27.72-37.33-22.47-59A50.53,50.53,0,0,1,360.75,112.57Z" style="fill: rgb(235, 235, 235); opacity: 0.1; transform-origin: 369.547px 163.448px;" class="animable"></path></g><g id="el373af3ai51e"><path d="M401.91,193.44c-15.76,20.33-36.11,20.91-46.33,16.54s-26.86-15.19-28.32-31.59C325.88,162.9,332,136.84,359.34,127c15.61-5.65,36.68,5.82,45.79,21.12A40.37,40.37,0,0,1,401.91,193.44Z" style="fill: rgb(235, 235, 235); opacity: 0.1; transform-origin: 368.841px 168.856px;" class="animable"></path></g><path d="M382.51,194.25C382.51,212.88,368,215,368,215s-14.55-2.14-14.55-20.77c0-17.74,14.55-44.56,14.55-44.56S382.51,176.51,382.51,194.25Z" style="fill: rgb(235, 235, 235); transform-origin: 367.98px 182.335px;" id="elrl8zdm2n3di" class="animable"></path><g id="el1vnvohnb1jh"><path d="M378,200.74c0,12.81-10,14.28-10,14.28s-10-1.47-10-14.28c0-12.19,10-30.63,10-30.63S378,188.55,378,200.74Z" style="opacity: 0.1; transform-origin: 368px 192.565px;" class="animable"></path></g><g id="elb8b3w7bg29q"><g style="opacity: 0.5; transform-origin: 367.968px 162.909px;" class="animable"><path d="M326.87,189a2.3,2.3,0,0,1-1.1-2.53,3.06,3.06,0,0,1,1.69-2,2.31,2.31,0,0,1,2.86,1.36,2.92,2.92,0,0,1-.91,2.89A2.2,2.2,0,0,1,326.87,189Z" style="fill: rgb(235, 235, 235); transform-origin: 328.056px 186.819px;" id="elj1xo7esbbxg" class="animable"></path><path d="M330,200.2a.94.94,0,0,1-.45-1,1.24,1.24,0,0,1,.69-.79.92.92,0,0,1,1.15.55,1.16,1.16,0,0,1-.37,1.16A.88.88,0,0,1,330,200.2Z" style="fill: rgb(235, 235, 235); transform-origin: 330.478px 199.345px;" id="el72cizekhgap" class="animable"></path><path d="M331.87,136.68a.92.92,0,0,1-.44-1,1.23,1.23,0,0,1,.69-.8.94.94,0,0,1,1.15.55,1.18,1.18,0,0,1-.37,1.17A.88.88,0,0,1,331.87,136.68Z" style="fill: rgb(235, 235, 235); transform-origin: 332.356px 135.824px;" id="eldvuq0o725jb" class="animable"></path><path d="M344.87,199.13a1.51,1.51,0,0,1-.71-1.66,2,2,0,0,1,1.11-1.28,1.51,1.51,0,0,1,1.87.89,1.91,1.91,0,0,1-.6,1.89A1.46,1.46,0,0,1,344.87,199.13Z" style="fill: rgb(235, 235, 235); transform-origin: 345.656px 197.719px;" id="elohkufeqov2f" class="animable"></path><path d="M402.71,174.13a2.32,2.32,0,0,1-.44,2.73,3.09,3.09,0,0,1-2.49.75,2.32,2.32,0,0,1-1.68-2.68,2.92,2.92,0,0,1,2.33-2A2.22,2.22,0,0,1,402.71,174.13Z" style="fill: rgb(235, 235, 235); transform-origin: 400.514px 175.275px;" id="eluif7m0bh72" class="animable"></path><path d="M410.12,135.34a.93.93,0,0,1-.17,1.1,1.26,1.26,0,0,1-1,.3.92.92,0,0,1-.68-1.08,1.19,1.19,0,0,1,.94-.79A.88.88,0,0,1,410.12,135.34Z" style="fill: rgb(235, 235, 235); transform-origin: 409.24px 135.806px;" id="elr8z82ez13j" class="animable"></path><path d="M402,126.26a1.5,1.5,0,0,1-.29,1.78,2,2,0,0,1-1.62.49,1.49,1.49,0,0,1-1.1-1.75,1.87,1.87,0,0,1,1.52-1.27A1.42,1.42,0,0,1,402,126.26Z" style="fill: rgb(235, 235, 235); transform-origin: 400.565px 127.021px;" id="elh9neymzmx7u" class="animable"></path></g></g><path d="M399.16,456.86a4.61,4.61,0,0,1-4.62,4.61H341.38a4.55,4.55,0,0,1-3.26-1.35,4.61,4.61,0,0,1,3.26-7.87h1.9V218.7h49.36V452.25h1.9a4.63,4.63,0,0,1,4.62,4.61Z" style="fill: rgb(235, 235, 235); transform-origin: 367.965px 340.085px;" id="el3lm3dxnx8qs" class="animable"></path><g id="elejbwyycfd3h"><path d="M399.16,456.86a4.61,4.61,0,0,1-4.62,4.61H344.27L364,456a20.37,20.37,0,0,0,14.84-18.46L385,218.7h7.64V452.25h1.9a4.63,4.63,0,0,1,4.62,4.61Z" style="fill: rgb(235, 235, 235); opacity: 0.2; transform-origin: 371.715px 340.085px;" class="animable"></path></g><g id="el1jn9fhro7jc"><g style="opacity: 0.2; transform-origin: 367.96px 324.31px;" class="animable"><path d="M348.46,218.7c.65,67.66.66,143.56,0,211.22-.66-67.66-.65-143.57,0-211.22Z" style="fill: rgb(219, 219, 219); transform-origin: 348.46px 324.31px;" id="elzhi0vfh9tqk" class="animable"></path><path d="M377.83,218.7c.65,67.66.65,143.56,0,211.22-.66-67.66-.65-143.57,0-211.22Z" style="fill: rgb(219, 219, 219); transform-origin: 377.828px 324.31px;" id="ely98o9mkalor" class="animable"></path><path d="M357.82,218.7c.65,56.34.66,119.55,0,175.89-.65-56.35-.65-119.55,0-175.89Z" style="fill: rgb(219, 219, 219); transform-origin: 357.822px 306.645px;" id="elnomp8ty4iz" class="animable"></path><path d="M387.46,218.7c.65,56.34.66,119.55,0,175.89-.65-56.35-.65-119.55,0-175.89Z" style="fill: rgb(219, 219, 219); transform-origin: 387.462px 306.645px;" id="elpm6p665biq" class="animable"></path><path d="M353.28,218.7c.67,24.15.67,48.47,0,72.63-.68-24.16-.68-48.48,0-72.63Z" style="fill: rgb(219, 219, 219); transform-origin: 353.276px 255.015px;" id="elkkg9nd0l1c" class="animable"></path><path d="M373.92,218.7c.68,24.15.68,48.47,0,72.63-.67-24.16-.67-48.48,0-72.63Z" style="fill: rgb(219, 219, 219); transform-origin: 373.924px 255.015px;" id="elhqg03pp8lxd" class="animable"></path></g></g><path d="M396.18,219.12v28.24a4.75,4.75,0,0,1-4.47,4.81,4.62,4.62,0,0,1-4.76-4.61v14.87a4.71,4.71,0,0,1-4,4.73,4.61,4.61,0,0,1-5.22-4.57V235.81a4.73,4.73,0,0,0-4.48-4.8,4.6,4.6,0,0,0-4.74,4.61V237a4.61,4.61,0,0,1-9.22,0v-7.27a4.73,4.73,0,0,0-4.48-4.8,4.61,4.61,0,0,0-4.75,4.61v18a4.62,4.62,0,0,1-4.75,4.61,4.75,4.75,0,0,1-4.48-4.81V219.12a4.11,4.11,0,0,1,4.1-4.1h47.16A4.1,4.1,0,0,1,396.18,219.12Z" style="fill: rgb(235, 235, 235); transform-origin: 368.505px 241.11px;" id="el1uvapye7z5l" class="animable"></path><g id="el7igbs8qcx1s"><g style="opacity: 0.6; transform-origin: 368.505px 241.11px;" class="animable"><path d="M396.18,219.12v28.24a4.75,4.75,0,0,1-4.47,4.81,4.62,4.62,0,0,1-4.76-4.61v14.87a4.71,4.71,0,0,1-4,4.73,4.61,4.61,0,0,1-5.22-4.57V235.81a4.73,4.73,0,0,0-4.48-4.8,4.6,4.6,0,0,0-4.74,4.61V237a4.61,4.61,0,0,1-9.22,0v-7.27a4.73,4.73,0,0,0-4.48-4.8,4.61,4.61,0,0,0-4.75,4.61v18a4.62,4.62,0,0,1-4.75,4.61,4.75,4.75,0,0,1-4.48-4.81V219.12a4.11,4.11,0,0,1,4.1-4.1h47.16A4.1,4.1,0,0,1,396.18,219.12Z" style="fill: rgb(255, 255, 255); transform-origin: 368.505px 241.11px;" id="el6akv7pbnvnk" class="animable"></path></g></g><path d="M392.64,252a4.76,4.76,0,0,1-5.94-4.48h.49c.07,2.78.26,10.06.3,12.76l0,2.13a5.3,5.3,0,0,1-8.7,4.19,5.53,5.53,0,0,1-1.91-4.35l-.05-4.26-.11-17v-4.26a4.83,4.83,0,0,0-.87-3.39,3.6,3.6,0,0,0-5.74.18c-.77,1.07-.65,2.16-.66,3.53a5.56,5.56,0,1,1-11.11-.47l0-2.13c-.07-1.24.25-4.92-.19-6.07a3.83,3.83,0,0,0-7.47,1c-.09,3.86-.21,11-.32,14.87a31,31,0,0,1-.22,4.3,4.73,4.73,0,0,1-6.91,3,4.52,4.52,0,0,0,6.42-3.13,36.6,36.6,0,0,0,0-4.19c-.09-2.71-.22-10-.27-12.77,0-1.49-.21-3.13.58-4.5,3-5.19,10.45-2.63,10.12,3.2l0,4.25c.08,1.11-.17,2.89.28,3.89a3.67,3.67,0,0,0,7.07-1.3c-.59-4.66,3.29-8.47,7.91-6.53a6.14,6.14,0,0,1,3.27,6.22V241c0,3.11-.11,18.5-.16,21.28-.16,5.47,7.6,5.58,7.83.16,0-1.31.11-5,.13-6.38l.21-8.51h.49a4.56,4.56,0,0,0,5.45,4.48Z" style="fill: rgb(219, 219, 219); transform-origin: 367.935px 245.995px;" id="el8nsrzsmiekb" class="animable"></path><g id="elrdnsxn5a469"><g style="opacity: 0.6; transform-origin: 346.308px 223.806px;" class="animable"><path d="M343.28,222.3c-2.32,2.4-.86,9.28,2.14,9.07,2.46-.17,3.94-2.88,4.24-4.7s-.3-4.3-2.07-5.07A4.22,4.22,0,0,0,343.28,222.3Z" style="fill: rgb(255, 255, 255); transform-origin: 345.935px 226.335px;" id="eltm4609jedl" class="animable"></path><path d="M346.35,218.58c.23,1.29,2.7,1.74,3.68.8a2,2,0,0,0-.78-3.11C348.25,216,346.15,217.42,346.35,218.58Z" style="fill: rgb(255, 255, 255); transform-origin: 348.408px 218.059px;" id="elmyw7vjqb6bi" class="animable"></path></g></g><path d="M144.75,452.25h1.9a4.61,4.61,0,0,1,4.61,4.61,4.6,4.6,0,0,1-4.61,4.61H93.49a4.61,4.61,0,0,1-4.61-4.61,4.6,4.6,0,0,1,4.61-4.61h1.9" style="fill: rgb(235, 235, 235); transform-origin: 120.07px 456.86px;" id="elvmc9k4jxpdf" class="animable"></path><g id="elfyqqygncef"><path d="M144.75,452.25h1.9a4.61,4.61,0,0,1,4.61,4.61,4.6,4.6,0,0,1-4.61,4.61H96.38L116.06,456a20.36,20.36,0,0,0,14.83-18.46" style="fill: rgb(235, 235, 235); opacity: 0.2; transform-origin: 123.82px 449.505px;" class="animable"></path></g><g id="elk0xgml9f0ai"><path d="M401.82,232.57c31.91-4.39,50.62,12.91,55.93,25.77s10.73,37.11-2.33,53.06c-12.33,15.07-40.65,33-73.74,17.92-18.91-8.61-27.72-37.33-22.47-59A50.53,50.53,0,0,1,401.82,232.57Z" style="fill: rgb(235, 235, 235); opacity: 0.1; transform-origin: 410.617px 283.448px;" class="animable"></path></g><g id="el3h45nyln19y"><path d="M443,313.43c-15.76,20.34-36.11,20.92-46.32,16.55s-26.87-15.19-28.33-31.59C367,282.9,373.1,256.84,400.41,247c15.61-5.65,36.68,5.82,45.79,21.12A40.35,40.35,0,0,1,443,313.43Z" style="fill: rgb(235, 235, 235); opacity: 0.1; transform-origin: 409.929px 288.856px;" class="animable"></path></g><path d="M423.58,314.25C423.58,332.88,409,335,409,335s-14.55-2.14-14.55-20.77c0-17.74,14.55-44.56,14.55-44.56S423.58,296.51,423.58,314.25Z" style="fill: rgb(235, 235, 235); transform-origin: 409.015px 302.335px;" id="eleug47syn7m9" class="animable"></path><g id="eludu3tnkymj"><path d="M419,320.74c0,12.81-10,14.28-10,14.28s-10-1.47-10-14.28c0-12.19,10-30.63,10-30.63S419,308.55,419,320.74Z" style="opacity: 0.1; transform-origin: 409px 312.565px;" class="animable"></path></g><g id="ellqshgmm2u8"><g style="opacity: 0.5; transform-origin: 409.038px 282.909px;" class="animable"><path d="M367.94,309a2.3,2.3,0,0,1-1.1-2.53,3.1,3.1,0,0,1,1.7-2,2.3,2.3,0,0,1,2.85,1.36,2.9,2.9,0,0,1-.91,2.89A2.2,2.2,0,0,1,367.94,309Z" style="fill: rgb(235, 235, 235); transform-origin: 369.127px 306.82px;" id="el1f8fjpasa17" class="animable"></path><path d="M371,320.2a1,1,0,0,1-.45-1,1.24,1.24,0,0,1,.69-.79.92.92,0,0,1,1.15.55,1.16,1.16,0,0,1-.37,1.16A.88.88,0,0,1,371,320.2Z" style="fill: rgb(235, 235, 235); transform-origin: 371.481px 319.345px;" id="el45q8dfczra9" class="animable"></path><path d="M373,256.68a.93.93,0,0,1-.45-1,1.26,1.26,0,0,1,.69-.8.94.94,0,0,1,1.15.55,1.18,1.18,0,0,1-.37,1.17A.87.87,0,0,1,373,256.68Z" style="fill: rgb(235, 235, 235); transform-origin: 373.477px 255.823px;" id="elmqeyudnt2fh" class="animable"></path><path d="M386,319.13a1.52,1.52,0,0,1-.72-1.66,2,2,0,0,1,1.11-1.28,1.51,1.51,0,0,1,1.87.89,1.91,1.91,0,0,1-.6,1.89A1.45,1.45,0,0,1,386,319.13Z" style="fill: rgb(235, 235, 235); transform-origin: 386.777px 317.718px;" id="elqkcr4pk1ml9" class="animable"></path><path d="M443.78,294.13a2.3,2.3,0,0,1-.44,2.73,3.09,3.09,0,0,1-2.49.75,2.32,2.32,0,0,1-1.68-2.68A2.92,2.92,0,0,1,441.5,293,2.22,2.22,0,0,1,443.78,294.13Z" style="fill: rgb(235, 235, 235); transform-origin: 441.587px 295.308px;" id="elb9zchuga4se" class="animable"></path><path d="M451.19,255.34a.93.93,0,0,1-.17,1.1,1.25,1.25,0,0,1-1,.3.93.93,0,0,1-.68-1.08,1.19,1.19,0,0,1,.94-.79A.88.88,0,0,1,451.19,255.34Z" style="fill: rgb(235, 235, 235); transform-origin: 450.311px 255.806px;" id="el2dwkyt1fezy" class="animable"></path><path d="M443,246.26a1.52,1.52,0,0,1-.28,1.78,2,2,0,0,1-1.63.49,1.51,1.51,0,0,1-1.1-1.75,1.88,1.88,0,0,1,1.52-1.27A1.42,1.42,0,0,1,443,246.26Z" style="fill: rgb(235, 235, 235); transform-origin: 441.566px 247.022px;" id="el55ilgbfsarr" class="animable"></path></g></g><path d="M440.23,456.86a4.61,4.61,0,0,1-4.61,4.61H382.45a4.61,4.61,0,1,1,0-9.22h1.9V338.7h49.36V452.25h1.91a4.63,4.63,0,0,1,4.61,4.61Z" style="fill: rgb(235, 235, 235); transform-origin: 409.035px 400.085px;" id="elv9h4itd99h" class="animable"></path><g id="elhcckbvmvhjs"><g style="opacity: 0.3; transform-origin: 409.035px 400.085px;" class="animable"><path d="M440.23,456.86a4.61,4.61,0,0,1-4.61,4.61H382.45a4.61,4.61,0,1,1,0-9.22h1.9V338.7h49.36V452.25h1.91a4.63,4.63,0,0,1,4.61,4.61Z" style="fill: rgb(255, 255, 255); transform-origin: 409.035px 400.085px;" id="ele23kj9cx" class="animable"></path></g></g><g id="els3hhai0vfsk"><path d="M440.23,456.86a4.61,4.61,0,0,1-4.61,4.61H385.34L405,456a20.37,20.37,0,0,0,14.84-18.46l6.22-98.8h7.63V452.25h1.91a4.63,4.63,0,0,1,4.61,4.61Z" style="fill: rgb(235, 235, 235); opacity: 0.2; transform-origin: 412.785px 400.105px;" class="animable"></path></g><g id="elv4hwk2nzric"><g style="opacity: 0.2; transform-origin: 409.032px 384.31px;" class="animable"><path d="M389.53,338.7c.67,29.3.65,61.89,0,91.22-.65-29.33-.66-61.91,0-91.22Z" style="fill: rgb(219, 219, 219); transform-origin: 389.532px 384.31px;" id="el34clmv3wzat" class="animable"></path><path d="M418.9,338.7c.66,29.3.65,61.89,0,91.22-.65-29.33-.67-61.91,0-91.22Z" style="fill: rgb(219, 219, 219); transform-origin: 418.898px 384.31px;" id="ele7b0bsbqvbc" class="animable"></path><path d="M398.89,338.7c.66,27.64.66,58.23,0,85.89-.66-27.66-.66-58.25,0-85.89Z" style="fill: rgb(219, 219, 219); transform-origin: 398.89px 381.645px;" id="elx24nkdi6apa" class="animable"></path><path d="M428.53,338.7c.66,27.64.66,58.23,0,85.89-.66-27.66-.66-58.25,0-85.89Z" style="fill: rgb(219, 219, 219); transform-origin: 428.53px 381.645px;" id="elz6h14qo0mgo" class="animable"></path><path d="M394.35,338.7c.67,24.15.67,48.47,0,72.63-.68-24.16-.68-48.48,0-72.63Z" style="fill: rgb(219, 219, 219); transform-origin: 394.346px 375.015px;" id="elqtygi5ttq5" class="animable"></path><path d="M415,338.7c.67,24.15.67,48.47,0,72.63-.68-24.16-.68-48.48,0-72.63Z" style="fill: rgb(219, 219, 219); transform-origin: 414.996px 375.015px;" id="elvsmcgdruadh" class="animable"></path></g></g><path d="M437.25,339.12v28.24a4.75,4.75,0,0,1-4.47,4.81,4.62,4.62,0,0,1-4.76-4.61v14.87a4.71,4.71,0,0,1-4,4.73,4.61,4.61,0,0,1-5.22-4.57V355.81a4.74,4.74,0,0,0-4.48-4.8,4.61,4.61,0,0,0-4.75,4.61V357a4.61,4.61,0,1,1-9.22,0v-7.27a4.73,4.73,0,0,0-4.48-4.8,4.6,4.6,0,0,0-4.74,4.61v18a4.63,4.63,0,0,1-4.76,4.61,4.75,4.75,0,0,1-4.48-4.81V339.12A4.11,4.11,0,0,1,386,335h47.17A4.1,4.1,0,0,1,437.25,339.12Z" style="fill: rgb(235, 235, 235); transform-origin: 409.57px 361.1px;" id="el24gam9iyhz5" class="animable"></path><g id="elosef4bnfio"><g style="opacity: 0.6; transform-origin: 409.57px 361.1px;" class="animable"><path d="M437.25,339.12v28.24a4.75,4.75,0,0,1-4.47,4.81,4.62,4.62,0,0,1-4.76-4.61v14.87a4.71,4.71,0,0,1-4,4.73,4.61,4.61,0,0,1-5.22-4.57V355.81a4.74,4.74,0,0,0-4.48-4.8,4.61,4.61,0,0,0-4.75,4.61V357a4.61,4.61,0,1,1-9.22,0v-7.27a4.73,4.73,0,0,0-4.48-4.8,4.6,4.6,0,0,0-4.74,4.61v18a4.63,4.63,0,0,1-4.76,4.61,4.75,4.75,0,0,1-4.48-4.81V339.12A4.11,4.11,0,0,1,386,335h47.17A4.1,4.1,0,0,1,437.25,339.12Z" style="fill: rgb(255, 255, 255); transform-origin: 409.57px 361.1px;" id="el5tdgrjp4t3e" class="animable"></path></g></g><path d="M433.72,372a4.76,4.76,0,0,1-6-4.48h.5c.06,2.78.25,10.06.29,12.76l0,2.13a5.3,5.3,0,0,1-8.7,4.19,5.53,5.53,0,0,1-1.91-4.35l-.05-4.26-.11-17v-4.26a4.83,4.83,0,0,0-.87-3.39,3.6,3.6,0,0,0-5.74.18c-.77,1.07-.65,2.16-.66,3.53a5.56,5.56,0,1,1-11.11-.47l0-2.13c-.07-1.24.25-4.92-.19-6.07a3.83,3.83,0,0,0-7.47,1c-.09,3.86-.21,11-.32,14.87a32.59,32.59,0,0,1-.21,4.3,4.74,4.74,0,0,1-6.92,3,4.52,4.52,0,0,0,6.42-3.13,36.6,36.6,0,0,0,0-4.19c-.09-2.71-.22-10-.27-12.77,0-1.49-.21-3.13.58-4.5,3-5.19,10.45-2.63,10.12,3.2.05,1.91,0,5.46.1,7.32.72,4.43,7.2,4,7.29-.48-.58-4.66,3.29-8.47,7.91-6.53a6.14,6.14,0,0,1,3.27,6.22V361c0,3.11-.11,18.5-.16,21.28-.16,5.47,7.6,5.58,7.84.16,0-1.31.1-5,.12-6.38l.21-8.51h.5a4.55,4.55,0,0,0,5.45,4.48Z" style="fill: rgb(219, 219, 219); transform-origin: 408.985px 365.995px;" id="elceol2vpnmvm" class="animable"></path><g id="elg2wl05vs23"><g style="opacity: 0.6; transform-origin: 387.381px 343.806px;" class="animable"><path d="M384.35,342.3c-2.32,2.4-.85,9.28,2.14,9.07,2.46-.17,3.94-2.88,4.24-4.7s-.3-4.3-2.07-5.07A4.22,4.22,0,0,0,384.35,342.3Z" style="fill: rgb(255, 255, 255); transform-origin: 387.006px 346.335px;" id="elgzvj9eewn1r" class="animable"></path><path d="M387.42,338.58c.23,1.29,2.7,1.74,3.68.8a2,2,0,0,0-.77-3.11C389.32,336,387.22,337.42,387.42,338.58Z" style="fill: rgb(255, 255, 255); transform-origin: 389.48px 338.059px;" id="elofwj3zmhp7d" class="animable"></path></g></g><path d="M65.81,409.69S38.57,394,36.53,376.14s53.67-89.24,79.33-108.6,102.06-5,115.48,4.59,49.35,78,44.57,108.53-45.33,61-58.94,62.28S160.89,431,160.89,431s-13,31.66-26.26,30.4-11.25-25.65-11.25-25.65S110.81,461.62,99.08,459s-13.63-33-13.63-33-3.1,24-11.64,23.38C67.09,448.91,65.81,409.69,65.81,409.69Z" style="fill: rgb(235, 235, 235); transform-origin: 156.41px 359.691px;" id="el2xdk6lrz3zu" class="animable"></path><g id="ellslrwnt073"><path d="M275.9,380.67c-4.77,30.5-45.31,61-58.93,62.29S160.9,431,160.9,431s-13,31.69-26.28,30.4a9.8,9.8,0,0,1-7.63-5c.63.3,7.68,3.91,11,1.2s18.12-35.9,18.12-35.9,56.13,2.35,58.64,1.84,44-39.19,44.52-51.88-29.11-91.69-31.1-94S200.53,262.32,193.78,261c17.6,2.92,32.34,7.34,37.55,11.08C244.77,281.69,280.7,350.15,275.9,380.67Z" style="opacity: 0.1; transform-origin: 201.664px 361.219px;" class="animable"></path></g><path d="M100.12,347c2.11-1.79,5.4-1,6.32,2.34a6.84,6.84,0,0,1-2.76,7.4,3.73,3.73,0,0,1-5.9-1.82C96.67,351.88,98.28,348.52,100.12,347Z" style="fill: rgb(219, 219, 219); transform-origin: 102.041px 351.813px;" id="elciz2rq60vwb" class="animable"></path><path d="M103,356.33c2.35-.84,5,1.43,5,5.15a6.1,6.1,0,0,1-4.44,6.13c-2,.49-4.55-.95-4.73-4.43A7,7,0,0,1,103,356.33Z" style="fill: rgb(219, 219, 219); transform-origin: 103.411px 361.929px;" id="elcnkl8qoxn8" class="animable"></path><path d="M103,366.92c2.3.21,4.06,3.66,3,7.33s-3.68,4.53-5.58,4.13-3.77-3-3-6.52S100.94,366.75,103,366.92Z" style="fill: rgb(219, 219, 219); transform-origin: 101.779px 372.689px;" id="el996d2c2jpl8" class="animable"></path><path d="M100.07,377.46c2,1.22,2.61,5.45.66,8.62s-4.47,2.88-6,1.63-2.53-4.63-.87-7.81S98.34,376.39,100.07,377.46Z" style="fill: rgb(219, 219, 219); transform-origin: 97.4604px 382.751px;" id="elq6y121ke8l" class="animable"></path><path d="M94.68,386.66c1.42,2.1.83,6.59-1.74,8.88s-4.73.87-5.79-1.07a7.57,7.57,0,0,1,1.33-8.16C90.81,383.88,93.44,384.83,94.68,386.66Z" style="fill: rgb(219, 219, 219); transform-origin: 90.9689px 390.786px;" id="elpf1i7czx9q" class="animable"></path><path d="M87.43,393.43c.69,2.72-1,6.92-3.93,8.05s-4.43-1.23-4.84-3.63.68-6.15,3.39-7.53S86.83,391.05,87.43,393.43Z" style="fill: rgb(219, 219, 219); transform-origin: 83.08px 395.826px;" id="eln6g8o9bkyc" class="animable"></path><path d="M79.19,396.93c-.13,3-2.79,6.43-5.65,6.28S70,400,70.25,397.44s2.25-5.82,5-6S79.3,394.3,79.19,396.93Z" style="fill: rgb(219, 219, 219); transform-origin: 74.6994px 397.324px;" id="elinhk8ythxl9" class="animable"></path><path d="M71,396.76c-.93,2.95-4.2,5.16-6.69,3.73s-2.3-4.77-1.36-7.2,3.57-4.78,6.07-3.73S71.77,394.19,71,396.76Z" style="fill: rgb(219, 219, 219); transform-origin: 66.8453px 395.12px;" id="eltbtmwxxb4ps" class="animable"></path><path d="M63.73,392.93c-1.62,2.52-5.11,3.27-6.93.74s-.74-5.77.75-7.77,4.45-3.17,6.37-1S65.14,390.73,63.73,392.93Z" style="fill: rgb(219, 219, 219); transform-origin: 60.4701px 389.485px;" id="elzsx6zjlhh69" class="animable"></path><path d="M58.37,385.91c-2.11,1.79-5.4,1-6.32-2.35a6.88,6.88,0,0,1,2.76-7.4,3.73,3.73,0,0,1,5.9,1.82C61.83,381,60.21,384.35,58.37,385.91Z" style="fill: rgb(219, 219, 219); transform-origin: 56.4536px 381.091px;" id="eljoxxlw78hc" class="animable"></path><path d="M55.53,376.53c-2.35.85-5-1.42-5-5.14A6.1,6.1,0,0,1,55,365.25c2-.49,4.55.95,4.73,4.44A7,7,0,0,1,55.53,376.53Z" style="fill: rgb(219, 219, 219); transform-origin: 55.1335px 370.933px;" id="elu1ylv3z0vao" class="animable"></path><path d="M55.55,365.94c-2.31-.2-4.07-3.66-3-7.32s3.67-4.54,5.58-4.14,3.77,3,3,6.52S57.56,366.12,55.55,365.94Z" style="fill: rgb(219, 219, 219); transform-origin: 56.7686px 360.172px;" id="ellbzyd709b5s" class="animable"></path><path d="M58.42,355.41c-2-1.23-2.6-5.45-.66-8.62s4.47-2.88,6.05-1.63,2.53,4.63.87,7.81S60.15,356.48,58.42,355.41Z" style="fill: rgb(219, 219, 219); transform-origin: 61.0631px 350.119px;" id="elh1yvi2ftmt9" class="animable"></path><path d="M63.81,346.2c-1.42-2.1-.83-6.58,1.74-8.87s4.74-.88,5.79,1.06A7.57,7.57,0,0,1,70,346.56C67.69,349,65.05,348,63.81,346.2Z" style="fill: rgb(219, 219, 219); transform-origin: 67.521px 342.078px;" id="elqvpdzi220e9" class="animable"></path><path d="M71.06,339.44c-.69-2.72,1-6.92,3.94-8.06s4.42,1.23,4.83,3.63-.68,6.15-3.39,7.54S71.67,341.81,71.06,339.44Z" style="fill: rgb(219, 219, 219); transform-origin: 75.41px 337.038px;" id="ellndsbjupgk" class="animable"></path><path d="M79.3,335.93c.13-3,2.79-6.43,5.65-6.27s3.58,3.19,3.3,5.76-2.26,5.82-5,6S79.19,338.56,79.3,335.93Z" style="fill: rgb(219, 219, 219); transform-origin: 83.7998px 335.541px;" id="el0xqtr26565h" class="animable"></path><path d="M87.53,336.1c.93-2.94,4.2-5.15,6.69-3.73s2.31,4.77,1.36,7.2-3.57,4.79-6.07,3.73S86.72,338.67,87.53,336.1Z" style="fill: rgb(219, 219, 219); transform-origin: 91.678px 337.745px;" id="elkd85e1ed5ir" class="animable"></path><path d="M94.76,339.93c1.62-2.52,5.11-3.26,6.93-.73s.74,5.77-.75,7.76-4.45,3.18-6.37,1S93.35,342.13,94.76,339.93Z" style="fill: rgb(219, 219, 219); transform-origin: 98.0199px 343.379px;" id="el3gmivp5jujk" class="animable"></path><path d="M99.24,340.24a1.14,1.14,0,0,1,1.87-.2,1.73,1.73,0,0,1-.21,2,1.13,1.13,0,0,1-1.72.27A1.84,1.84,0,0,1,99.24,340.24Z" style="fill: rgb(219, 219, 219); transform-origin: 100.113px 341.117px;" id="el9hun93szucq" class="animable"></path><path d="M104.1,348.91a1,1,0,0,1,1.7.61,1.8,1.8,0,0,1-.75,1.94,1,1,0,0,1-1.59-.47A2,2,0,0,1,104.1,348.91Z" style="fill: rgb(219, 219, 219); transform-origin: 104.619px 350.154px;" id="el93cwbwd3cwv" class="animable"></path><path d="M106,359.66c.64-.22,1.36.37,1.33,1.34a1.61,1.61,0,0,1-1.2,1.61,1.08,1.08,0,0,1-1.27-1.15A1.85,1.85,0,0,1,106,359.66Z" style="fill: rgb(219, 219, 219); transform-origin: 106.094px 361.121px;" id="el2txs82qbq9z" class="animable"></path><path d="M104.61,371.2c.62.05,1.09.95.8,1.92a1.22,1.22,0,1,1-2.31-.62A1.56,1.56,0,0,1,104.61,371.2Z" style="fill: rgb(219, 219, 219); transform-origin: 104.235px 372.732px;" id="eltkfq80xp6e9" class="animable"></path><path d="M100.2,382.14a1.73,1.73,0,0,1,.17,2.26,1.05,1.05,0,0,1-1.63.43,1.68,1.68,0,0,1-.23-2.05A1.22,1.22,0,0,1,100.2,382.14Z" style="fill: rgb(219, 219, 219); transform-origin: 99.4872px 383.533px;" id="elwgyrxpbxykc" class="animable"></path><path d="M93.28,391.16a2,2,0,0,1-.48,2.32.93.93,0,0,1-1.56-.27,2,2,0,0,1,.37-2.14A1,1,0,0,1,93.28,391.16Z" style="fill: rgb(219, 219, 219); transform-origin: 92.271px 392.228px;" id="elpzg3ogpvz0c" class="animable"></path><path d="M84.66,397.16a2,2,0,0,1-1.07,2.12c-.78.3-1.19-.32-1.29-.95a2,2,0,0,1,.92-2A1,1,0,0,1,84.66,397.16Z" style="fill: rgb(219, 219, 219); transform-origin: 83.4826px 397.792px;" id="elyn6tzfq0c4" class="animable"></path><path d="M75.4,399.44a1.73,1.73,0,0,1-1.53,1.65c-.77,0-1-.84-.88-1.51s.62-1.53,1.37-1.57S75.44,398.75,75.4,399.44Z" style="fill: rgb(219, 219, 219); transform-origin: 74.1816px 399.549px;" id="elfyizupvu9n" class="animable"></path><path d="M66.61,397.71c-.25.77-1.14,1.35-1.81,1s-.61-1.25-.35-1.89,1-1.25,1.64-1S66.84,397,66.61,397.71Z" style="fill: rgb(219, 219, 219); transform-origin: 65.4939px 397.288px;" id="elgp9422ubtg" class="animable"></path><path d="M59.35,392.17a1.13,1.13,0,0,1-1.86.2,1.7,1.7,0,0,1,.21-2,1.13,1.13,0,0,1,1.72-.28A1.82,1.82,0,0,1,59.35,392.17Z" style="fill: rgb(219, 219, 219); transform-origin: 58.4855px 391.29px;" id="el5rvti828irm" class="animable"></path><path d="M54.5,383.51a1,1,0,0,1-1.7-.61,1.78,1.78,0,0,1,.75-1.94,1,1,0,0,1,1.59.47A2,2,0,0,1,54.5,383.51Z" style="fill: rgb(219, 219, 219); transform-origin: 53.9793px 382.266px;" id="el1ce6ltsy3kd" class="animable"></path><path d="M52.64,372.76c-.64.22-1.36-.37-1.33-1.35a1.61,1.61,0,0,1,1.2-1.61A1.09,1.09,0,0,1,53.78,371,1.87,1.87,0,0,1,52.64,372.76Z" style="fill: rgb(219, 219, 219); transform-origin: 52.5482px 371.295px;" id="ela9o44ox0o3" class="animable"></path><path d="M54,361.22c-.62-.05-1.09-1-.8-1.92a1.33,1.33,0,0,1,1.51-1.09,1.35,1.35,0,0,1,.8,1.71A1.56,1.56,0,0,1,54,361.22Z" style="fill: rgb(219, 219, 219); transform-origin: 54.349px 359.708px;" id="elmfy50z9guxf" class="animable"></path><path d="M58.39,350.28a1.76,1.76,0,0,1-.17-2.26,1.06,1.06,0,0,1,1.64-.43,1.67,1.67,0,0,1,.22,2A1.22,1.22,0,0,1,58.39,350.28Z" style="fill: rgb(219, 219, 219); transform-origin: 59.1014px 348.883px;" id="elpb5mcb8gn9a" class="animable"></path><path d="M65.32,341.26a2,2,0,0,1,.48-2.33.93.93,0,0,1,1.56.28,2,2,0,0,1-.37,2.14A1,1,0,0,1,65.32,341.26Z" style="fill: rgb(219, 219, 219); transform-origin: 66.3274px 340.188px;" id="el6thu9potbz8" class="animable"></path><path d="M73.93,335.25A2,2,0,0,1,75,333.14c.78-.3,1.19.31,1.3.94a2,2,0,0,1-.92,2C74.65,336.43,74.09,335.87,73.93,335.25Z" style="fill: rgb(219, 219, 219); transform-origin: 75.1131px 334.625px;" id="elsnog3a23nb" class="animable"></path><path d="M83.19,333c0-.79.76-1.69,1.54-1.65s1,.83.87,1.5-.61,1.53-1.36,1.58S83.16,333.67,83.19,333Z" style="fill: rgb(219, 219, 219); transform-origin: 84.4116px 332.89px;" id="eldn5y9rfrdze" class="animable"></path><path d="M92,334.71c.26-.77,1.14-1.35,1.81-1s.62,1.24.36,1.88-1,1.26-1.64,1S91.76,335.39,92,334.71Z" style="fill: rgb(219, 219, 219); transform-origin: 93.1182px 335.128px;" id="ele3c8ye4krk6" class="animable"></path><path d="M71.22,396.18c-14.18-2.41-18-18.71-13-35.64,4.78-16,15.56-26.41,28.29-23.85,13.35,2.69,18.3,21.3,12.59,37.77C92.71,393,79.73,397.62,71.22,396.18Z" style="fill: rgb(166, 166, 166); transform-origin: 78.7836px 366.364px;" id="elify67usuhao" class="animable"></path><path d="M67.66,392l.48-1a14.82,14.82,0,0,0,4,1.25L72,393.39A16.76,16.76,0,0,1,67.66,392Zm7.74.46a18,18,0,0,0,4.2-.69l.3,1.05a19.08,19.08,0,0,1-4.45.74Zm8.14-2.32a22.51,22.51,0,0,0,3.53-2.41l.7.84a22.54,22.54,0,0,1-3.71,2.53Zm-22.43-4.26,1-.56a14.79,14.79,0,0,0,2.61,3.32l-.75.8A16.18,16.18,0,0,1,61.11,385.92Zm29-1.18a28.78,28.78,0,0,0,2.53-3.48l.94.58A31.31,31.31,0,0,1,91,385.45ZM58.37,377.4l1.09-.13a24.45,24.45,0,0,0,.9,4.19l-1,.33A25.62,25.62,0,0,1,58.37,377.4Zm36.33.06a41.59,41.59,0,0,0,1.62-4l1,.36a42.65,42.65,0,0,1-1.67,4.12Zm-36.49-6.62c0-.77.12-1.55.22-2.33l1.09.13c-.09.77-.17,1.53-.22,2.27s-.07,1.38-.08,2h-1.1C58.13,372.25,58.16,371.55,58.21,370.84Zm39.3-1.56A36.84,36.84,0,0,0,98.2,365l1.1.11a41.15,41.15,0,0,1-.72,4.4Zm-38.29-5.15c.23-1,.5-2.05.81-3.09.12-.4.24-.8.37-1.19l1.05.34c-.13.38-.25.77-.37,1.16-.3,1-.57,2-.79,3ZM98,356.39l1.09-.17a35.58,35.58,0,0,1,.38,4.45l-1.1,0A33.22,33.22,0,0,0,98,356.39Zm-36-.69a38.86,38.86,0,0,1,2-4l1,.54A37.93,37.93,0,0,0,63,356.14Zm33.4-7.45,1-.52a24,24,0,0,1,1.74,4.13l-1,.34A22.32,22.32,0,0,0,95.38,348.25ZM66.44,348a26.83,26.83,0,0,1,3-3.34l.75.8a27.79,27.79,0,0,0-2.86,3.2Zm23.23-5.88.56-.95A15.13,15.13,0,0,1,93.74,344l-.81.74A13.89,13.89,0,0,0,89.67,342.12ZM73,341.9A18.73,18.73,0,0,1,77,340l.34,1a18.4,18.4,0,0,0-3.84,1.82Zm12.61-1.34a16.29,16.29,0,0,0-4-.32l-.05-1.09a17.48,17.48,0,0,1,4.3.33l.21,0-.24,1.07Z" style="fill: rgb(199, 199, 199); transform-origin: 78.795px 366.345px;" id="el5cbwor6lyuh" class="animable"></path><path d="M117.32,376.56c.53.3,7.49,14.81,7.18,21.22s-4,10.38-6.7,9.83-3-19.64-3-19.64-5.4,17.94-8.07,16.12-3-8.42-2.17-11C106.56,387.1,117.32,376.56,117.32,376.56Z" style="fill: rgb(166, 166, 166); transform-origin: 114.334px 392.11px;" id="el0ojjsv77bzml" class="animable"></path><path d="M202.41,359.5c2.41-2.44,7.46-2.33,10,1.06s.9,6.79-1.31,8.67a6.78,6.78,0,0,1-9.21-.58C199.19,365.65,200.32,361.63,202.41,359.5Z" style="fill: rgb(219, 219, 219); transform-origin: 206.999px 364.292px;" id="el5l4st2hxf0r" class="animable"></path><path d="M209.92,369c3.09-1.47,7.81.36,9,4.41s-1.48,6.69-4.2,7.7a6.78,6.78,0,0,1-8.46-3.7C204.79,373.67,207.22,370.28,209.92,369Z" style="fill: rgb(219, 219, 219); transform-origin: 212.514px 374.994px;" id="el9mymg0s30n" class="animable"></path><path d="M213.73,380.49c3.41-.32,7.22,3,7,7.24s-3.69,5.78-6.59,5.79a6.76,6.76,0,0,1-6.68-6.36C207.31,383.13,210.76,380.77,213.73,380.49Z" style="fill: rgb(219, 219, 219); transform-origin: 214.097px 386.994px;" id="elqhc1ovbjfjm" class="animable"></path><path d="M213.38,392.59c3.31.86,5.75,5.3,4.09,9.19S212,406,209.3,405a6.77,6.77,0,0,1-4.1-8.27C206.44,392.87,210.49,391.84,213.38,392.59Z" style="fill: rgb(219, 219, 219); transform-origin: 211.461px 398.921px;" id="ela6yqc9pq9so" class="animable"></path><path d="M208.91,403.84c2.82,2,3.59,6.94.7,10s-6.54,2.07-8.77.22a6.77,6.77,0,0,1-1-9.17C202.3,401.74,206.45,402.15,208.91,403.84Z" style="fill: rgb(219, 219, 219); transform-origin: 204.966px 409.172px;" id="eli8d6pyj1rdm" class="animable"></path><path d="M200.86,412.89c2,2.79,1,7.75-2.77,9.66s-6.85-.29-8.31-2.8a6.76,6.76,0,0,1,2.17-9C195.37,408.65,199.13,410.45,200.86,412.89Z" style="fill: rgb(219, 219, 219); transform-origin: 195.381px 416.549px;" id="elokoy9f0a5v" class="animable"></path><path d="M190.21,418.64c.91,3.3-1.71,7.62-5.91,8.13s-6.34-2.62-6.86-5.48a6.76,6.76,0,0,1,5.11-7.68C186.49,412.77,189.42,415.75,190.21,418.64Z" style="fill: rgb(219, 219, 219); transform-origin: 183.87px 420.145px;" id="elp5erzjqjxvq" class="animable"></path><path d="M178.23,420.39C178,423.8,174,427,169.89,426s-5.06-4.63-4.57-7.49a6.77,6.77,0,0,1,7.43-5.47C176.75,413.61,178.47,417.41,178.23,420.39Z" style="fill: rgb(219, 219, 219); transform-origin: 171.727px 419.591px;" id="elj4gj28gji9a" class="animable"></path><path d="M166.37,417.94c-1.42,3.12-6.21,4.75-9.75,2.43s-3.17-6.08-1.73-8.59a6.76,6.76,0,0,1,8.85-2.61C167.3,411.06,167.62,415.23,166.37,417.94Z" style="fill: rgb(219, 219, 219); transform-origin: 160.443px 414.96px;" id="elc85xh94zb6k" class="animable"></path><path d="M156.07,411.59c-2.4,2.44-7.46,2.33-10-1s-.9-6.8,1.31-8.68a6.77,6.77,0,0,1,9.21.59C159.29,405.44,158.17,409.46,156.07,411.59Z" style="fill: rgb(219, 219, 219); transform-origin: 151.482px 406.826px;" id="el4okssw7mfbb" class="animable"></path><path d="M148.56,402.09c-3.09,1.47-7.81-.36-9-4.41s1.48-6.69,4.2-7.7a6.77,6.77,0,0,1,8.46,3.7C153.69,397.42,151.26,400.81,148.56,402.09Z" style="fill: rgb(219, 219, 219); transform-origin: 145.966px 396.095px;" id="elji5icrr5w3r" class="animable"></path><path d="M144.75,390.6c-3.41.33-7.21-3-7-7.23s3.68-5.79,6.58-5.8a6.77,6.77,0,0,1,6.68,6.36C151.17,388,147.72,390.32,144.75,390.6Z" style="fill: rgb(219, 219, 219); transform-origin: 144.379px 384.096px;" id="el4d0g91enc23" class="animable"></path><path d="M145.1,378.5c-3.31-.86-5.75-5.29-4.09-9.19s5.44-4.18,8.17-3.19a6.76,6.76,0,0,1,4.1,8.26C152,378.22,148,379.25,145.1,378.5Z" style="fill: rgb(219, 219, 219); transform-origin: 147.019px 372.182px;" id="elatuxmyg2x3k" class="animable"></path><path d="M149.57,367.25c-2.82-1.94-3.59-6.94-.7-10s6.54-2.07,8.77-.21a6.75,6.75,0,0,1,1,9.16C156.19,369.36,152,368.94,149.57,367.25Z" style="fill: rgb(219, 219, 219); transform-origin: 153.515px 361.92px;" id="eln94n8y47kmf" class="animable"></path><path d="M157.62,358.2c-2-2.79-1-7.75,2.77-9.66s6.85.29,8.31,2.8a6.77,6.77,0,0,1-2.17,9C163.11,362.45,159.35,360.64,157.62,358.2Z" style="fill: rgb(219, 219, 219); transform-origin: 163.097px 354.543px;" id="eludij9caz6q" class="animable"></path><path d="M168.27,352.46c-.91-3.3,1.71-7.63,5.91-8.14s6.34,2.62,6.86,5.48a6.76,6.76,0,0,1-5.11,7.68C172,358.32,169.07,355.34,168.27,352.46Z" style="fill: rgb(219, 219, 219); transform-origin: 174.61px 350.945px;" id="elas0f08k5gk" class="animable"></path><path d="M180.25,350.7c.27-3.41,4.22-6.58,8.34-5.62s5.06,4.63,4.57,7.49a6.77,6.77,0,0,1-7.43,5.47C181.73,357.48,180,353.68,180.25,350.7Z" style="fill: rgb(219, 219, 219); transform-origin: 186.752px 351.495px;" id="elqw6n992x3eg" class="animable"></path><path d="M192.11,353.15c1.42-3.12,6.21-4.75,9.75-2.43s3.18,6.08,1.74,8.6a6.77,6.77,0,0,1-8.86,2.6C191.18,360,190.86,355.87,192.11,353.15Z" style="fill: rgb(219, 219, 219); transform-origin: 198.04px 356.132px;" id="elgeiyam9h6j" class="animable"></path><path d="M198,352.55a1.83,1.83,0,0,1,2.59-.64,1.62,1.62,0,0,1,.46,2.28,1.8,1.8,0,0,1-2.35.69A1.78,1.78,0,0,1,198,352.55Z" style="fill: rgb(219, 219, 219); transform-origin: 199.575px 353.343px;" id="el7zdl22vr5j9" class="animable"></path><path d="M208.11,360.94a1.83,1.83,0,0,1,2.65.28,1.62,1.62,0,0,1-.35,2.3,1.73,1.73,0,0,1-2.3-2.58Z" style="fill: rgb(219, 219, 219); transform-origin: 209.34px 362.202px;" id="el57e4ss1gvlm" class="animable"></path><path d="M214.78,372.3a1.83,1.83,0,0,1,2.4,1.17,1.62,1.62,0,0,1-1.11,2,1.79,1.79,0,0,1-2.24-1A1.76,1.76,0,0,1,214.78,372.3Z" style="fill: rgb(219, 219, 219); transform-origin: 215.49px 373.875px;" id="el67aqn21luef" class="animable"></path><path d="M217.17,385.25a1.84,1.84,0,0,1,1.85,1.92,1.62,1.62,0,0,1-1.74,1.54,1.8,1.8,0,0,1-1.77-1.69A1.77,1.77,0,0,1,217.17,385.25Z" style="fill: rgb(219, 219, 219); transform-origin: 217.266px 386.982px;" id="elv1gmsjl0mn" class="animable"></path><path d="M215,398.25a1.82,1.82,0,0,1,1.09,2.43,1.63,1.63,0,0,1-2.17.85,1.8,1.8,0,0,1-1.09-2.19A1.77,1.77,0,0,1,215,398.25Z" style="fill: rgb(219, 219, 219); transform-origin: 214.495px 399.925px;" id="elkc38zq1rmpl" class="animable"></path><path d="M208.48,409.7a1.83,1.83,0,0,1,.19,2.66,1.62,1.62,0,0,1-2.32.06,1.73,1.73,0,0,1,2.13-2.72Z" style="fill: rgb(219, 219, 219); transform-origin: 207.457px 411.134px;" id="elabxuh9q7ux7" class="animable"></path><path d="M198.46,418.25a1.84,1.84,0,0,1-.74,2.56,1.62,1.62,0,0,1-2.2-.74,1.8,1.8,0,0,1,.57-2.38A1.77,1.77,0,0,1,198.46,418.25Z" style="fill: rgb(219, 219, 219); transform-origin: 197px 419.219px;" id="el9d7dtnlse1n" class="animable"></path><path d="M186.11,422.85a1.83,1.83,0,0,1-1.56,2.16,1.63,1.63,0,0,1-1.82-1.45,1.79,1.79,0,0,1,1.35-2A1.76,1.76,0,0,1,186.11,422.85Z" style="fill: rgb(219, 219, 219); transform-origin: 184.427px 423.276px;" id="elxsh2cn804u" class="animable"></path><path d="M172.94,423a1.82,1.82,0,0,1-2.21,1.49,1.62,1.62,0,0,1-1.21-2,1.79,1.79,0,0,1,2-1.45A1.76,1.76,0,0,1,172.94,423Z" style="fill: rgb(219, 219, 219); transform-origin: 171.21px 422.781px;" id="elcrlyemctp3j" class="animable"></path><path d="M160.53,418.54a1.82,1.82,0,0,1-2.59.64,1.61,1.61,0,0,1-.46-2.27,1.73,1.73,0,0,1,3.05,1.63Z" style="fill: rgb(219, 219, 219); transform-origin: 158.953px 417.761px;" id="elpveuam188fd" class="animable"></path><path d="M150.37,410.15a1.82,1.82,0,0,1-2.65-.28,1.62,1.62,0,0,1,.35-2.3,1.79,1.79,0,0,1,2.44.16A1.76,1.76,0,0,1,150.37,410.15Z" style="fill: rgb(219, 219, 219); transform-origin: 149.158px 408.881px;" id="el13wjwus3c6e" class="animable"></path><path d="M143.7,398.79a1.83,1.83,0,0,1-2.4-1.17,1.62,1.62,0,0,1,1.12-2,1.8,1.8,0,0,1,2.24,1A1.78,1.78,0,0,1,143.7,398.79Z" style="fill: rgb(219, 219, 219); transform-origin: 142.993px 397.216px;" id="el5pxfj49eg4b" class="animable"></path><path d="M141.31,385.84a1.84,1.84,0,0,1-1.85-1.92,1.62,1.62,0,0,1,1.74-1.54,1.79,1.79,0,0,1,1.77,1.69A1.77,1.77,0,0,1,141.31,385.84Z" style="fill: rgb(219, 219, 219); transform-origin: 141.214px 384.108px;" id="elmum3cj52no" class="animable"></path><path d="M143.5,372.85a1.84,1.84,0,0,1-1.09-2.44,1.63,1.63,0,0,1,2.17-.85,1.8,1.8,0,0,1,1.09,2.19A1.78,1.78,0,0,1,143.5,372.85Z" style="fill: rgb(219, 219, 219); transform-origin: 144.006px 371.169px;" id="elkp9fzossibb" class="animable"></path><path d="M150,361.39a1.83,1.83,0,0,1-.19-2.66,1.63,1.63,0,0,1,2.33-.06,1.79,1.79,0,0,1,.27,2.43A1.76,1.76,0,0,1,150,361.39Z" style="fill: rgb(219, 219, 219); transform-origin: 151.045px 359.974px;" id="elu6oim3d5ce" class="animable"></path><path d="M160,352.84a1.84,1.84,0,0,1,.74-2.56,1.62,1.62,0,0,1,2.2.74,1.8,1.8,0,0,1-.57,2.38A1.77,1.77,0,0,1,160,352.84Z" style="fill: rgb(219, 219, 219); transform-origin: 161.46px 351.871px;" id="eln5fw1gyz4gc" class="animable"></path><path d="M172.37,348.24a1.82,1.82,0,0,1,1.56-2.15,1.62,1.62,0,0,1,1.82,1.45,1.79,1.79,0,0,1-1.35,2A1.75,1.75,0,0,1,172.37,348.24Z" style="fill: rgb(219, 219, 219); transform-origin: 174.053px 347.824px;" id="elcqekp0t74sl" class="animable"></path><path d="M185.54,348.14a1.84,1.84,0,0,1,2.21-1.49,1.63,1.63,0,0,1,1.21,2,1.81,1.81,0,0,1-2,1.45A1.77,1.77,0,0,1,185.54,348.14Z" style="fill: rgb(219, 219, 219); transform-origin: 187.269px 348.36px;" id="el5y2rhkh1o75" class="animable"></path><path d="M187.28,351.74c17.81,3.42,32.21,26,24.75,47.18s-27.32,23.95-42.1,19.7-29.76-21.58-24.5-42.3S171.73,348.75,187.28,351.74Z" style="fill: rgb(166, 166, 166); transform-origin: 179.199px 385.693px;" id="el70hkbi70qd8" class="animable"></path><path d="M177.12,417.14l.12-1.1a36,36,0,0,0,4.41.25v1.1c-.89,0-1.79,0-2.68-.08C178.35,417.26,177.73,417.21,177.12,417.14Zm-6.41-1.29c-.8-.23-1.62-.51-2.42-.83l.4-1a24.44,24.44,0,0,0,2.32.79c.62.18,1.25.35,1.88.5l-.25,1.06C172,416.2,171.35,416,170.71,415.85ZM186,416a29.52,29.52,0,0,0,4.3-.91l.31,1.06a32.05,32.05,0,0,1-4.46.94Zm-25.64-5.48.67-.87a32.42,32.42,0,0,0,3.66,2.45l-.55,1A34.58,34.58,0,0,1,160.4,410.51Zm34,3a24.92,24.92,0,0,0,3.78-2.21l.64.89a26.79,26.79,0,0,1-3.94,2.32ZM154,404.08l.88-.67a31.23,31.23,0,0,0,2.9,3.31l-.78.78A35.81,35.81,0,0,1,154,404.08Zm47.56,4.4a26.22,26.22,0,0,0,2.8-3.37l.9.63a27.74,27.74,0,0,1-2.92,3.51ZM149.49,396.2l1-.41a30.64,30.64,0,0,0,1.91,4l-.95.55A32.15,32.15,0,0,1,149.49,396.2Zm57.1,5.13a32.91,32.91,0,0,0,1.65-3.92l0-.14,1,.5a36.07,36.07,0,0,1-1.71,4.06Zm-59.2-14,1.09-.09a28.93,28.93,0,0,0,.7,4.33l-1.07.26A31,31,0,0,1,147.39,387.36ZM209.44,393a31.77,31.77,0,0,0,.52-3.9l0-.47,1.1.06,0,.48a31.88,31.88,0,0,1-.53,4Zm-62.09-10.24a33.16,33.16,0,0,1,.64-4.5l1.07.23a32.36,32.36,0,0,0-.61,4.34v0Zm61.89-2.87,1.07-.24a32.7,32.7,0,0,1,.69,4.49l-1.09.1A33.61,33.61,0,0,0,209.24,379.92Zm-60-6a29.31,29.31,0,0,1,1.89-4.14l1,.53a28.83,28.83,0,0,0-1.82,4Zm57-2.26,1-.51a35,35,0,0,1,1.83,4.16l-1,.38A33.7,33.7,0,0,0,206.23,371.66ZM153.65,366a29.72,29.72,0,0,1,3.09-3.36l.75.81a25.91,25.91,0,0,0-3,3.23Zm47.58-1.54.81-.73a35.08,35.08,0,0,1,2.83,3.56l-.91.62A35.36,35.36,0,0,0,201.23,364.43Zm-40.91-4.65a32.32,32.32,0,0,1,3.94-2.27l.48,1a30.91,30.91,0,0,0-3.81,2.19Zm34.17-1,.56-.93a29.26,29.26,0,0,1,3.71,2.65l-.7.84A30,30,0,0,0,194.49,358.82Zm-26-3a37.45,37.45,0,0,1,4.4-1.15l.21,1.08a34.62,34.62,0,0,0-4.26,1.11Zm17.9-.15-.14,0,.34-1.05a24.35,24.35,0,0,1,4.39,1.28l-.4,1A23.18,23.18,0,0,0,186.38,355.65Zm-9-1.6a36.36,36.36,0,0,1,4.55-.05l-.06,1.1a36.05,36.05,0,0,0-4.41,0Z" style="fill: rgb(199, 199, 199); transform-origin: 179.205px 385.676px;" id="elajefg03v5kt" class="animable"></path><path d="M170.9,336c7.87-7.38,21.15-6.62,30.47-2.56a37.75,37.75,0,0,1,13.4,9.37,54.11,54.11,0,0,1,8.33,13.32,65.49,65.49,0,0,1,5.07,16.47.29.29,0,0,1-.56.12,50.56,50.56,0,0,0-8.37-16.42,54.57,54.57,0,0,0-13.35-11.72A45,45,0,0,0,189.35,338c-6-1.06-11.92-.81-17.94-.65A.82.82,0,0,1,170.9,336Z" style="fill: rgb(199, 199, 199); transform-origin: 199.435px 351.654px;" id="elmu67rgoonqk" class="animable"></path><path d="M57.4,340.28c5.9-9,12.73-17.87,23.32-21.26,9.38-3,22.33-.79,26.44,9.32.22.53-.32,1.22-.9.94-7.71-3.73-16.37-7.69-25.17-6.07-4.6.85-9,3.69-12.62,6.58a111.41,111.41,0,0,0-10.89,10.62A.11.11,0,0,1,57.4,340.28Z" style="fill: rgb(199, 199, 199); transform-origin: 82.2946px 329.119px;" id="elq1whf7fou1b" class="animable"></path><path d="M119.58,325.23a23.42,23.42,0,0,0,.79,5.12,46.81,46.81,0,0,0,4.77,11.41c.16.25,4.21-1.7,9.12-4.64a11,11,0,0,0,5.33-6.33c.67-2.39.66-6.08-1.73-7.59s-5.55,1.26-7.1,3a25.7,25.7,0,0,0-3.28,4.94,17.66,17.66,0,0,0-.84-7.11A5.34,5.34,0,0,0,124.2,321a3.08,3.08,0,0,0-3.4.29C119.72,322.2,119.56,323.89,119.58,325.23Z" style="fill: rgb(219, 219, 219); transform-origin: 129.775px 331.201px;" id="el1ttb0pdcgqs" class="animable"></path><path d="M134.06,345.62a52,52,0,0,0,7.55-5c2.34-1.93,4.59-5.13,4.78-8.27,0-.4.64-.43.62,0,0,1.55-.52,7.57-.85,9a14.86,14.86,0,0,1-5.08,8.77,20.94,20.94,0,0,1-9.84,4,12.72,12.72,0,0,0-4.54,1.36,9.52,9.52,0,0,0-3.61,4.23c0,.1-.19,0-.17-.06C123.51,356.86,127.4,349.39,134.06,345.62Z" style="fill: rgb(199, 199, 199); transform-origin: 134.964px 345.896px;" id="eln2itet3mtyf" class="animable"></path><path d="M112.63,329.62c0-.13.23-.17.24,0a16.17,16.17,0,0,0,2.34,7c1.35,2.25,3.52,3.87,4.52,6.37a25.11,25.11,0,0,1,1.81,7.43c.19,2.44-.38,5.86-.61,8.3,0,.33-.15.24-.2-.12a19.67,19.67,0,0,0-2.85-7.63c-1.46-2.18-3.65-3.94-4.83-6.29s-1.24-5-1.24-7.58A41.44,41.44,0,0,1,112.63,329.62Z" style="fill: rgb(199, 199, 199); transform-origin: 116.694px 344.216px;" id="el8tdq1klaypl" class="animable"></path><path d="M226.43,423.91s9-3.22,13-8.54c3.26-4.4,2.41-15.94,2.41-15.94s-8.14,7.1-10.43,10.76S226.43,423.91,226.43,423.91Z" style="fill: rgb(219, 219, 219); transform-origin: 234.185px 411.67px;" id="el4soer3gj34d" class="animable"></path><path d="M223.64,409.08s-4.73,3.73-6,7.7c-1.06,3.28,1.78,10,1.78,10s3.41-5.86,4-8.51S223.64,409.08,223.64,409.08Z" style="fill: rgb(199, 199, 199); transform-origin: 220.579px 417.93px;" id="el9xtiazy0q2k" class="animable"></path><path d="M119.28,305.9s4.21-8.61,3.32-15.19c-.73-5.42-9.4-13.08-9.4-13.08s-.87,10.75,0,15S119.28,305.9,119.28,305.9Z" style="fill: rgb(219, 219, 219); transform-origin: 117.768px 291.765px;" id="elnerxntmzm9" class="animable"></path><path d="M104,302s.92,5.95,3.74,9c2.33,2.53,9.56,3.37,9.56,3.37s-3.42-5.87-5.42-7.72S104,302,104,302Z" style="fill: rgb(199, 199, 199); transform-origin: 110.65px 308.185px;" id="elx7ogkh30n0n" class="animable"></path><path d="M157.92,312.67s2.49-9.26,7.48-13.63c4.12-3.6,15.7-3.67,15.7-3.67s-6.43,8.68-9.9,11.26S157.92,312.67,157.92,312.67Z" style="fill: rgb(219, 219, 219); transform-origin: 169.51px 304.02px;" id="el7ixkbuv99pa" class="animable"></path><path d="M172,319.84s-4.62,3.88-8.77,4.33c-3.42.38-9.41-3.75-9.41-3.75s6.43-2.16,9.15-2.24S172,319.84,172,319.84Z" style="fill: rgb(199, 199, 199); transform-origin: 162.91px 321.186px;" id="el71dfch4dwg5" class="animable"></path><path d="M215.51,434.5s5.88,1.32,9.77-.18c3.21-1.24,6.64-7.66,6.64-7.66s-6.71,1-9.16,2.21S215.51,434.5,215.51,434.5Z" style="fill: rgb(219, 219, 219); transform-origin: 223.715px 430.848px;" id="el5cbbjdsle0b" class="animable"></path><path d="M237.32,361.91s2.4-9.28.21-15.54c-1.8-5.17-11.83-10.94-11.83-10.94s1.3,10.72,3.05,14.67S237.32,361.91,237.32,361.91Z" style="fill: rgb(219, 219, 219); transform-origin: 232.076px 348.67px;" id="elufnd3q2m5x" class="animable"></path><path d="M240,376.89s4.39-4.12,5.34-8.18c.77-3.36-2.62-9.8-2.62-9.8s-2.91,6.14-3.31,8.83S240,376.89,240,376.89Z" style="fill: rgb(199, 199, 199); transform-origin: 242.384px 367.9px;" id="elr5o1xko6vq" class="animable"></path><path d="M72.34,318.21s3.8-8.43,8.26-11.55c3.69-2.58,11.81-.06,11.81-.06s-6.43,7-9.43,8.71S72.34,318.21,72.34,318.21Z" style="fill: rgb(219, 219, 219); transform-origin: 82.375px 311.854px;" id="el32ar8ixdbf9" class="animable"></path><path d="M63,326.11c-.06.8,0,1.31,0,1.31s4-4.07,5.21-6.31a24.69,24.69,0,0,0,1.57-3.8C67.51,320.14,65.25,323.11,63,326.11Z" style="fill: rgb(199, 199, 199); transform-origin: 66.3767px 322.365px;" id="elbh4r6vlky1" class="animable"></path></g><g id="freepik--Floor--inject-163" class="animable" style="transform-origin: 250px 461.47px;"><path d="M38.44,461.47c135.54-.61,287.58-.62,423.12,0-135.54.62-287.58.61-423.12,0Z" style="fill: rgb(38, 50, 56); transform-origin: 250px 461.47px;" id="el2zi322qzcp2" class="animable"></path></g><g id="freepik--Plants--inject-163" class="animable" style="transform-origin: 249.996px 415.509px;"><path d="M400.35,426c-4.25-5.48-9.08-11.52-8.78-18.8.27-6.72,2.53-14.17,8.69-17.74,1.77-1,3.05-1.37,3.62.89.86,3.45-.61,7.65-1.35,11a69.25,69.25,0,0,0-1.79,13.13c-.09,3.1.13,6.21.11,9.32,0,.39,0,.78,0,1.17,0,.15,0,.3,0,.45a.91.91,0,0,0,.11.16.35.35,0,0,1,0,.32.34.34,0,0,1-.06.12A.36.36,0,0,1,400.35,426Z" style="fill: rgb(69, 90, 100); transform-origin: 397.849px 407.406px;" id="el54l6sy5iujm" class="animable"></path><path d="M400.92,426.05c-3.47-5-7.54-10.18-7-16.55a28.35,28.35,0,0,1,2.28-8.61c.52-1.24,2.06-4.94,3.67-5,2.92-.15-1,11.6-1.17,13a29.72,29.72,0,0,0,2.18,15c0,.39,0,.78,0,1.17a32.77,32.77,0,0,1-2.75-10.46c-.44-5,1.25-9.19,2.17-14,.2-1,1-4.34-.78-4.07-1.18.17-2.71,3.78-3,4.55a27.94,27.94,0,0,0-2.18,8.16c-.61,6.42,3.33,11.64,6.71,16.77A.34.34,0,0,1,400.92,426.05Z" style="fill: rgb(255, 255, 255); transform-origin: 397.461px 410.969px;" id="elndwncuyux9" class="animable"></path><path d="M399.15,431.61c-.25.1-.5.22-.75.33h0a.17.17,0,0,1-.18,0,.29.29,0,0,1-.1-.38.19.19,0,0,1,.13-.1l.11,0,.23-.07a0,0,0,0,0,0,0,.15.15,0,0,0,.05-.06c3-3.67,6.6-6.84,9.57-10.57,2.83-3.56,5.42-7.31,8.53-10.65,1.95-2.1,12.28-11.94,14.49-5.86,1,2.7-1.16,6.57-2.49,8.81a29.06,29.06,0,0,1-6.9,7.8C415.09,426.18,406.88,428.2,399.15,431.61Z" style="fill: rgb(69, 90, 100); transform-origin: 414.786px 417.13px;" id="elqkglc2cz3s" class="animable"></path><path d="M414.6,422.94a33.81,33.81,0,0,0,7.2-6.41c.72-.86,4.15-5,3-6.35-.73-.88-2.67.28-3.32.63-2.79,1.52-4.8,4.22-6.93,6.5a129.2,129.2,0,0,1-14,12.89c-.35.19-.72.37-1.07.57s-.59.32-.88.48l-.31.16-.23.14a.28.28,0,0,0,.1.37l.69-.36-.51.39h0l.61-.28.14-.06L400,431C404.92,428.4,410,426.08,414.6,422.94Zm-12.81,6.63c2.9-2.3,5.69-4.76,8.36-7.33,2.16-2.07,4.22-4.24,6.23-6.45a30.18,30.18,0,0,1,3.59-3.56c1-.8,5-3.44,4,.28-.7,2.7-4.16,5.71-6.17,7.42a47.81,47.81,0,0,1-7.22,5C407.73,426.58,404.74,428.05,401.79,429.57Z" style="fill: rgb(255, 255, 255); transform-origin: 411.53px 420.904px;" id="elabhuow8wkcp" class="animable"></path><path d="M385.9,445.74h0a1,1,0,0,1-.17-.19c-3.44-5.32-8.85-11.83-8.53-18.55.24-5,3-11.65,7.91-13.68,5.56-2.28,4.48,8.23,4.33,10.92a193.09,193.09,0,0,1-3.2,21.42s0,.09,0,.13v0C386.13,445.91,386,445.83,385.9,445.74Z" style="fill: rgb(69, 90, 100); transform-origin: 383.404px 429.425px;" id="elu310bg9vvvq" class="animable"></path><path d="M386.17,445.81c0-.43-.06-.86-.08-1.29-.31-4.92-.4-9.85-.25-14.76,0-1.24,1-10.74-1.44-10.29-1.49.28-2.39,3.82-2.72,5a19.6,19.6,0,0,0-.67,6.42c.33,5,2.86,9.45,4.62,14.07.1.21.18.43.26.65a.66.66,0,0,0,0,.14h0C386,445.83,386.13,445.91,386.17,445.81Zm-4.39-12.28a19.76,19.76,0,0,1-.19-6.6c.2-1.45,1.09-6.71,2.93-6.81,1-.05.88.56,1.07,1.67a13.4,13.4,0,0,1,.16,1.54c.05,1.27,0,2.54-.1,3.8-.12,2.23-.18,4.44-.19,6.67,0,3.65.11,7.28.35,10.92C384.54,441,382.57,437.42,381.78,433.53Z" style="fill: rgb(255, 255, 255); transform-origin: 383.572px 432.656px;" id="ela8cx089m42w" class="animable"></path><path d="M403.25,447.51a37.56,37.56,0,0,1-21.74,2.26.23.23,0,0,1-.12-.06.28.28,0,0,1-.09-.33.27.27,0,0,1,.31-.19l.45.07c7.6-4.17,15.23-8.23,22.76-12.56,1.77-1,13.22-7.29,13.83-2.83.38,2.76-3.83,6-5.65,7.55A37.66,37.66,0,0,1,403.25,447.51Z" style="fill: rgb(69, 90, 100); transform-origin: 399.977px 441.373px;" id="el2tzwedhffws" class="animable"></path><path d="M411.28,438.9c.45-.6.84-1.33,0-1.69-1.69-.69-7,2.37-8.51,3.14-6.26,3.2-12.64,5.76-19.14,8.37l-1.65.67h-.64a.26.26,0,0,0,.09.33l.17,0h.88A44.1,44.1,0,0,0,396,447.61a41.63,41.63,0,0,0,8-3.47C406.35,442.83,409.63,441.08,411.28,438.9ZM382.8,449.37h-.42l.69-.23a125.69,125.69,0,0,0,15.1-6.09c2.48-1.21,4.87-2.57,7.38-3.7,1.06-.47,4-1.92,5-1.46s-.06,1.19-.6,1.69c-.39.36-1.16.92-1.56,1.22A43.71,43.71,0,0,1,382.8,449.37Z" style="fill: rgb(255, 255, 255); transform-origin: 396.544px 443.415px;" id="ell41cq64zt5q" class="animable"></path><path d="M367.05,461.47l-.74-1,2.67-2c3.56-2.75,7.11-5.53,10.61-8.37,2-1.62,4-3.26,5.84-4.95l.2-.17.46-.42.49-.46a54.72,54.72,0,0,0,10.89-13.19c.95-1.68,1.82-3.39,2.66-5.13.08-.17.15-.34.23-.5a.59.59,0,0,0,.06-.14c.09-.17.17-.34.25-.52l.18-.39c2.47-5.39,4.51-11,6.69-16.47.61-1.57,1.24-3.15,1.88-4.7a1.49,1.49,0,0,1,.11-.28,3.65,3.65,0,0,1,.14-.35c2.78-6.93,5.65-13.83,8.25-20.81.09-.26.47-.07.38.18-1.7,4.67-3.28,9.38-4.9,14.09-.21.63-.43,1.25-.64,1.88-.43,1.25-.85,2.48-1.28,3.71-.87,2.48-1.75,4.94-2.67,7.39-2.58,6.88-5.09,13.94-8.51,20.48-.25.49-.52,1-.79,1.46-.16.3-.33.61-.5.89s-.39.7-.6,1c-3.59,6.05-8.41,10.75-13.7,15.11l-1.12.91-.52.43-.27.22-.36.29h0l-.28.21-1,.76c-3.54,2.78-7.13,5.5-10.71,8.2C369.33,459.7,368.19,460.59,367.05,461.47Z" style="fill: rgb(69, 90, 100); transform-origin: 392.312px 421.483px;" id="elus9zo4l48q" class="animable"></path><path d="M411.14,383.17c1.76-5.54,7-14.77,14-13.54a5.43,5.43,0,0,1,4.66,5.56c0,3.34-2.29,6.48-4.26,9-5.26,6.67-11.1,12.78-15.88,19.83,0,.07-.41.6-.51.76s-.31,0-.22-.17l.47-.7C409.44,397.06,409.05,389.73,411.14,383.17Z" style="fill: rgb(69, 90, 100); transform-origin: 419.356px 387.182px;" id="elf2fix27z6u" class="animable"></path><path d="M409.69,404a.94.94,0,0,0,.06-.15,56.6,56.6,0,0,1,3-6.16,116.47,116.47,0,0,1,7.93-11.85c1.1-1.47,6.6-8.5,2-9-1.92-.21-3.88,1.43-5.19,2.62a21.53,21.53,0,0,0-5,6.86c-2.41,5.12-3,10.78-3,16.37,0,.26,0,.51,0,.76a2.29,2.29,0,0,0-.1.23l-.07.15a.17.17,0,0,0,0,.1.19.19,0,0,0,.25.15A.16.16,0,0,0,409.69,404Zm0-1.65a45.7,45.7,0,0,1,2.25-13.65,24.27,24.27,0,0,1,3.4-6.37,20.36,20.36,0,0,1,2.16-2.39,13.07,13.07,0,0,1,1.87-1.52c1.46-1,3.45-1.51,4.2-.78.95.91.59,1.7-.12,3.25a12.41,12.41,0,0,1-.81,1.53c-.74,1.23-1.6,2.39-2.45,3.54-1.42,1.9-2.83,3.81-4.16,5.78-.91,1.33-1.79,2.69-2.61,4.07a59.84,59.84,0,0,0-3.77,7.4C409.63,403,409.65,402.68,409.67,402.39Z" style="fill: rgb(255, 255, 255); transform-origin: 416.9px 390.456px;" id="el2egbaojk79x" class="animable"></path><path d="M85.23,417.19c3.43,3.16,6.64,6.54,9.81,9.95,1.8,1.93,3.57,3.89,5.38,5.82,2,2.13,3.85,4.51,6.65,5.56h0a1.4,1.4,0,0,1,.34.21s0,0,0,0a.35.35,0,0,1-.43.43l-.19-.07h-.07a11.25,11.25,0,0,1-2.53-.59,61.17,61.17,0,0,1-6.77-2,57.58,57.58,0,0,1-12.91-6.47,49,49,0,0,1-9.67-8.56c-2.25-2.62-5.64-6.49-6.28-10-.57-3.2,3.56-2.57,5.47-2C78.4,410.76,82,414.21,85.23,417.19Z" style="fill: rgb(69, 90, 100); transform-origin: 87.9645px 424.089px;" id="elh3dfpm0r7lp" class="animable"></path><path d="M74.85,414.85c-1,1.37,2.73,5.54,4.3,7.39A46.49,46.49,0,0,0,87.54,430,60.48,60.48,0,0,0,106,438.89c.26.08.52.17.79.24h.08l.18.06a.34.34,0,0,0,.43-.43c-.52-.24-1-.49-1.53-.77s-.89-.5-1.32-.77c-4.77-2.84-8.91-6.78-13-10.54C86.85,422.27,76.16,413,74.85,414.85Zm30.44,23.26c.66.36,1.33.7,2,1-.54-.17-1.08-.34-1.61-.53a66.7,66.7,0,0,1-16.31-7.75,47.74,47.74,0,0,1-7.83-6.51A43.91,43.91,0,0,1,78,420.17c-.46-.61-3.45-4.26-2.66-5,.55-.5,4,1.74,4.07,1.78.69.44,1.36.92,2,1.41,1.37,1,2.68,2.09,4,3.19,2.79,2.39,5.45,4.94,8.17,7.42C97.18,432.31,101,435.72,105.29,438.11Z" style="fill: rgb(255, 255, 255); transform-origin: 91.0898px 426.908px;" id="elmq9zuukq7s" class="animable"></path><path d="M111.06,403c3.11,6,3.84,13,3.93,19.64.05,3.59-.07,7.17-.11,10.75,0,3-.28,6.47.34,9.58a3.15,3.15,0,0,0,.09.42,12.32,12.32,0,0,0,.85,2.55.17.17,0,0,1,0,.17,2,2,0,0,1,.16.24.06.06,0,0,1-.09.08l-.23-.2v0a.2.2,0,0,1-.2-.12l0-.1-.22-.21c-5.23-4.82-8.16-13-10.15-19.54s-2.9-13.53-1.18-20.22c.44-1.68,1.18-5.68,3.21-6.25C109.25,399.27,110.4,401.74,111.06,403Z" style="fill: rgb(69, 90, 100); transform-origin: 109.839px 423.085px;" id="elhjuab4oi1ut" class="animable"></path><path d="M108.3,406.93c-2,.34-1.61,6-1.56,7.35a73.7,73.7,0,0,0,1.88,12.35c1.47,6.68,3.4,13.07,6.81,18.93h0c0,.09,0,.16.07.24l.22.21a.31.31,0,0,0,0,.1.19.19,0,0,0,.2.12c0-.11-.06-.21-.07-.32-.23-.82-.43-1.66-.6-2.5a3.15,3.15,0,0,1-.09-.42c-1.19-5.81-1.39-11.82-1.83-17.77a66.12,66.12,0,0,0-1.87-12.29C111.25,411.9,110,406.64,108.3,406.93Zm1.85,3c2.8,6.49,2.72,14.21,3.19,21.15A73,73,0,0,0,115.28,445a69,69,0,0,1-6-17.27,94.3,94.3,0,0,1-1.86-10.26,38.07,38.07,0,0,1-.3-5.65,14.4,14.4,0,0,1,.42-3.37C108.29,406.42,109.66,408.8,110.15,409.91Z" style="fill: rgb(255, 255, 255); transform-origin: 111.298px 426.575px;" id="elp873tnrb1j" class="animable"></path><path d="M127.28,455.12a.32.32,0,0,1,0,.35h.14a.1.1,0,0,1,.11.11.1.1,0,0,1-.09.12c-8.06,1.27-17,1.64-25-.53A31.91,31.91,0,0,1,93,450.93c-2-1.33-5.93-4-6.16-6.67-.44-5.35,13.73.2,15.86,1.05,3.89,1.53,7.64,3.39,11.49,5,4.23,1.76,8.57,3.21,12.91,4.66A.28.28,0,0,1,127.28,455.12Z" style="fill: rgb(69, 90, 100); transform-origin: 107.181px 449.343px;" id="eldqai20tnn2u" class="animable"></path><path d="M127.28,455.11c-.43,0-.87-.08-1.3-.14a68.7,68.7,0,0,1-20.41-5.53,63,63,0,0,0-10-3.79c-.85-.21-4-1.21-3.5.82.27,1,5.45,4,6.86,4.71a43.31,43.31,0,0,0,10.18,3.19A71.06,71.06,0,0,0,127,455.6l.52,0a.1.1,0,0,0-.11-.11h-.13A.36.36,0,0,0,127.28,455.11Zm-15.14-.62A50.55,50.55,0,0,1,101.85,452,35,35,0,0,1,98,450.26a21.92,21.92,0,0,1-2.84-1.69C93,447,92.52,446.4,92.7,446c.12-.26.58-.4,2.35-.11a17.51,17.51,0,0,1,3.34,1c1.53.58,3,1.21,4.56,1.87,3,1.3,6,2.65,9.13,3.72a53.27,53.27,0,0,0,13.79,2.88A82.19,82.19,0,0,1,112.14,454.49Z" style="fill: rgb(255, 255, 255); transform-origin: 109.769px 450.469px;" id="elow22o3sqc9q" class="animable"></path><path d="M126.45,432a20.29,20.29,0,0,1,4.16,7.59c1.84,5.49,2.48,11.29,3.93,16.88.22.84.45,1.67.71,2.5,0,.09.58,1,.52.95s-.28-.28-.72-.74h0c-2.18-2.29-8.68-9.33-11.16-14.1a41.48,41.48,0,0,1-3.75-9.34c-.36-1.55-1-5.05.53-6.24S125.4,430.86,126.45,432Z" style="fill: rgb(69, 90, 100); transform-origin: 127.735px 444.556px;" id="elkl344b6fe1l" class="animable"></path><path d="M123.14,433.31c-2.16.9,2.31,10.39,2.87,11.64a57.94,57.94,0,0,0,8,12.86c.35.45.72.89,1.09,1.32s.7.74.72.75-.48-.86-.52-1-.08-.28-.13-.42c-.21-.69-.4-1.38-.57-2.06-1.42-3.75-2.77-7.53-4.27-11.25a53.7,53.7,0,0,0-3.78-7.78C126.16,436.85,124.09,432.92,123.14,433.31Zm1.77,2c4.83,6.92,6.58,15.26,9.77,23l.15.38-.4-.51a66.76,66.76,0,0,1-6.74-10.56,65,65,0,0,1-3-7,32.55,32.55,0,0,1-1.35-4c-.12-.6-.41-2.24,0-2.45C123.84,433.81,124.59,434.82,124.91,435.28Z" style="fill: rgb(255, 255, 255); transform-origin: 129.188px 446.581px;" id="elg9f1zhp87l" class="animable"></path><path d="M84.61,377.53c7.6,12.69,3.73,29,10.46,42l0,.07c.2.4.42.79.65,1.19a.28.28,0,0,1-.21.4.2.2,0,0,1-.2-.11,2.64,2.64,0,0,1-.15-.29c-6-5.59-10.91-13.2-14.5-20.55-3.11-6.39-5.17-13.57-4.1-20.72.26-1.76.66-5.28,2.79-5.94S83.68,376,84.61,377.53Z" style="fill: rgb(69, 90, 100); transform-origin: 86.0114px 397.34px;" id="elfrkljt8c2fk" class="animable"></path><path d="M82,382.19c-.89.29-1,1.61-1.11,2.33a22.86,22.86,0,0,0-.11,5.42,37.08,37.08,0,0,0,2.75,10.75,77.33,77.33,0,0,0,9,16.78q1.26,1.74,2.68,3.35c.12.14.24.26.35.4a.28.28,0,0,0,.21-.41c-.23-.37-.42-.75-.64-1.14a.46.46,0,0,1-.05-.1,45.59,45.59,0,0,1-3.84-7.92,106.5,106.5,0,0,1-3.39-13.29C87.46,396.61,85.06,381.19,82,382.19Zm2,2.6c1.55,3.31,2,7.09,2.84,10.63s1.56,7.18,2.41,10.75a51.06,51.06,0,0,0,2.74,8.3,39.63,39.63,0,0,0,3.43,6.43,57.12,57.12,0,0,1-4.18-5.82.13.13,0,0,1,0-.08,100.59,100.59,0,0,1-5.95-11.29l-.07-.14A46.41,46.41,0,0,1,81.57,393a26.4,26.4,0,0,1-.51-6.08c.11-2.31.43-4.17,1.22-4.2C82.81,382.66,83.55,383.81,84,384.79Z" style="fill: rgb(255, 255, 255); transform-origin: 88.2362px 401.682px;" id="elo3h559wqi7" class="animable"></path><path d="M85.55,403.55c2.08,3.67,4.25,7.3,6.44,10.92q1.53,2.56,3.08,5.1a.46.46,0,0,0,.05.1c.38.61.75,1.23,1.12,1.84,3.35,5.54,6.67,11.37,10.89,16.31a55.75,55.75,0,0,0,7.47,7.08c.28.21.56.43.83.66h0l.47.35.25.2c2.36,1.81,4.81,3.52,7.2,5.16,3.34,2.29,6.81,4.35,10.29,6.36a1.92,1.92,0,0,0,.31.18l.47.29.25.13.44.27c1.12.64,2.24,1.3,3.36,2l-.72,1a81.37,81.37,0,0,1-10.58-5.73,1.53,1.53,0,0,1-.21-.14c-.33-.2-.67-.41-1-.63s-.81-.51-1.21-.78c-1-.64-1.92-1.28-2.86-1.93-5.45-3.75-11-7.82-15.44-12.78l-.36-.42a.8.8,0,0,1-.15-.17,2.61,2.61,0,0,1-.27-.3l-.4-.48c-.24-.29-.48-.59-.7-.89l-.21-.26c-3.62-4.68-6.52-10-9.43-15.13-.53-.93-1-1.86-1.57-2.8-.29-.52-.58-1-.86-1.56-.43-.8-.85-1.6-1.28-2.39a.13.13,0,0,1,0-.08c-2-3.76-3.93-7.55-5.95-11.29C85.17,403.54,85.46,403.37,85.55,403.55Z" style="fill: rgb(69, 90, 100); transform-origin: 111.86px 432.487px;" id="el400no5w80rv" class="animable"></path></g><g id="freepik--Candles--inject-163" class="animable animator-active" style="transform-origin: 250.005px 257.167px;"><path d="M363.93,420.55a6.4,6.4,0,0,1-6.4,6.4H283.75a6.4,6.4,0,0,1-6.4-6.4,6.41,6.41,0,0,1,6.4-6.4h2.64V289.77h68.5V414.15h2.64a6.42,6.42,0,0,1,6.4,6.4Z" style="fill: rgb(248, 224, 188); transform-origin: 320.64px 358.36px;" id="el0o5ig1uo008" class="animable"></path><g id="elynuxtg9vr19"><g style="opacity: 0.8; transform-origin: 320.64px 358.36px;" class="animable"><path d="M363.93,420.55a6.4,6.4,0,0,1-6.4,6.4H283.75a6.4,6.4,0,0,1-6.4-6.4,6.41,6.41,0,0,1,6.4-6.4h2.64V289.77h68.5V414.15h2.64a6.42,6.42,0,0,1,6.4,6.4Z" style="fill: rgb(255, 255, 255); transform-origin: 320.64px 358.36px;" id="eltkctfalzp0b" class="animable"></path></g></g><g id="elmzh8nkwnlm"><path d="M363.93,420.55a6.4,6.4,0,0,1-6.4,6.4H283.75l27.32-6.37A37.6,37.6,0,0,0,339.91,388l7.35-98.22h7.63V414.15h2.64a6.42,6.42,0,0,1,6.4,6.4Z" style="fill: rgb(248, 224, 188); opacity: 0.2; transform-origin: 323.84px 358.365px;" class="animable"></path></g><g id="elrj6r6pu2dj"><g style="opacity: 0.2; transform-origin: 320.64px 357.31px;" class="animable"><path d="M293.58,289.77c.66,43.4.64,91.65,0,135.08-.65-43.44-.67-91.67,0-135.08Z" style="fill: rgb(248, 224, 188); transform-origin: 293.576px 357.31px;" id="elxexi2g8ymk" class="animable"></path><path d="M334.33,289.77c.66,43.4.65,91.65,0,135.08-.65-43.44-.66-91.67,0-135.08Z" style="fill: rgb(248, 224, 188); transform-origin: 334.33px 357.31px;" id="elfo0aoegybw" class="animable"></path><path d="M306.57,295.76c.66,34.31.65,72.45,0,106.78-.65-34.34-.66-72.47,0-106.78Z" style="fill: rgb(248, 224, 188); transform-origin: 306.57px 349.15px;" id="elruww1hc7ydn" class="animable"></path><path d="M347.7,289.77c.67,36.23.65,76.51,0,112.77-.65-36.26-.66-76.53,0-112.77Z" style="fill: rgb(248, 224, 188); transform-origin: 347.702px 346.155px;" id="elld6edlqrmwc" class="animable"></path><path d="M300.26,289.77c.66,31.15.65,65.78,0,96.94-.65-31.17-.67-65.79,0-96.94Z" style="fill: rgb(248, 224, 188); transform-origin: 300.258px 338.24px;" id="el6db837diqb2" class="animable"></path><path d="M328.91,289.77c.67,31.15.65,65.78,0,96.94-.64-31.17-.66-65.79,0-96.94Z" style="fill: rgb(248, 224, 188); transform-origin: 328.914px 338.24px;" id="elxaxcde5wfhd" class="animable"></path></g></g><path d="M282.21,290.19v51.29a6.62,6.62,0,0,0,6.57,6.67,6.41,6.41,0,0,0,6.24-6.4V324a6.41,6.41,0,0,0,12.81,0V309.14a6.39,6.39,0,0,1,6.27-6.39,6.63,6.63,0,0,1,6.54,6.68v64.63a6.62,6.62,0,0,0,6.57,6.67,6.42,6.42,0,0,0,6.24-6.41V305.26a6.41,6.41,0,0,1,12.81,0v36.22a6.62,6.62,0,0,0,6.57,6.67,6.41,6.41,0,0,0,6.24-6.4V290.19a5.18,5.18,0,0,0-5.18-5.19h-66.5A5.18,5.18,0,0,0,282.21,290.19Z" style="fill: rgb(248, 224, 188); transform-origin: 320.64px 332.865px;" id="elyolicq7o7t7" class="animable"></path><g id="ellsesp2dmqa"><g style="opacity: 0.8; transform-origin: 320.64px 332.865px;" class="animable"><path d="M282.21,290.19v51.29a6.62,6.62,0,0,0,6.57,6.67,6.41,6.41,0,0,0,6.24-6.4V324a6.41,6.41,0,0,0,12.81,0V309.14a6.39,6.39,0,0,1,6.27-6.39,6.63,6.63,0,0,1,6.54,6.68v64.63a6.62,6.62,0,0,0,6.57,6.67,6.42,6.42,0,0,0,6.24-6.41V305.26a6.41,6.41,0,0,1,12.81,0v36.22a6.62,6.62,0,0,0,6.57,6.67,6.41,6.41,0,0,0,6.24-6.4V290.19a5.18,5.18,0,0,0-5.18-5.19h-66.5A5.18,5.18,0,0,0,282.21,290.19Z" style="fill: rgb(255, 255, 255); transform-origin: 320.64px 332.865px;" id="elqgzfd79zdpn" class="animable"></path></g></g><path d="M286.39,347.72c4.4,1.72,9-2.21,8.44-6.78l0-1.88-.18-15h.78a6,6,0,0,0,4.84,5.79,5.92,5.92,0,0,0,7-5.47c0-1.45,0-5,0-6.55l0-8.79a7.15,7.15,0,0,1,5.78-6.9c5.43-.95,9.11,4,8.53,9.06,0,9,.1,38.83.12,48.28,0,3.88,0,11.42.08,15.24,1,6.94,10.71,6.55,10.81-.58,0-18.32.08-47.79.22-65.83a27.63,27.63,0,0,1,.2-4.53c1.94-8.08,13.7-6.95,13.94,1.41,0,.66,0,2.6,0,3.3,0,2.74-.08,10.32-.11,13.16l-.21,17.56a14.18,14.18,0,0,0,.28,4.29,6.25,6.25,0,0,0,10.41,2.8,6.44,6.44,0,0,1-3.89,1.91c-3.85.51-7.32-3-7.26-6.81l0-2.19-.21-17.56c0-4-.1-11.4-.13-15.36.66-7.47-9.46-9.47-11.39-2.21l.13,70.06a7.47,7.47,0,0,1-5.67,7.4,7.39,7.39,0,0,1-8.36-4.18,9.88,9.88,0,0,1-.73-4.72v-4.39l0-8.77c0-9.63.08-39.14.12-48.28a9.86,9.86,0,0,0-.43-4,5.62,5.62,0,0,0-10.87,1.89l-.06,8.76c0,1.62-.06,5-.06,6.62-.78,8.82-13.56,8.49-13.76-.4h.78l-.18,15,0,1.88c.49,4.73-4.38,8.68-8.82,6.78Z" style="fill: rgb(248, 224, 188); transform-origin: 321.855px 340.002px;" id="elppiyzc90l9q" class="animable"></path><g id="elvtjx9pm7am"><g style="opacity: 0.6; transform-origin: 291.812px 299.933px;" class="animable"><path d="M286.77,297.42c-3.86,4-1.42,15.43,3.56,15.08,4.08-.29,6.54-4.79,7-7.81s-.49-7.14-3.44-8.43A7,7,0,0,0,286.77,297.42Z" style="fill: rgb(255, 255, 255); transform-origin: 291.155px 304.135px;" id="elemlbkykhay" class="animable"></path><path d="M291.88,291.25c.37,2.15,4.47,2.88,6.11,1.32s.37-4.73-1.29-5.16S291.54,289.32,291.88,291.25Z" style="fill: rgb(255, 255, 255); transform-origin: 295.305px 290.382px;" id="elmhuoeficogj" class="animable"></path></g></g><g id="el09gzmygkmn1k"><path d="M310.63,142.83c44.28-6.09,70.25,17.92,77.62,35.76s14.88,51.51-3.23,73.64C367.9,273.14,328.6,298,282.68,277.1c-26.24-12-38.47-51.8-31.18-81.86A70.13,70.13,0,0,1,310.63,142.83Z" style="fill: rgb(248, 224, 188); opacity: 0.1; transform-origin: 322.838px 213.432px;" class="animable"></path></g><g id="elk38kzouoz1k"><path d="M367.75,255.05c-21.87,28.22-50.11,29-64.29,23s-37.28-21.08-39.3-43.83c-1.92-21.5,6.61-57.67,44.51-71.38,21.66-7.85,50.91,8.06,63.55,29.3A56,56,0,0,1,367.75,255.05Z" style="fill: rgb(248, 224, 188); opacity: 0.1; transform-origin: 321.866px 220.932px;" class="animable"></path></g><path d="M340.83,256.18c0,25.86-20.19,28.82-20.19,28.82s-20.19-3-20.19-28.82c0-24.62,20.19-61.84,20.19-61.84S340.83,231.56,340.83,256.18Z" style="fill: rgb(248, 224, 188); transform-origin: 320.64px 239.67px;" id="elg58j7itztrs" class="animable"></path><g id="elqh1vjxh120l"><path d="M334.52,265.19c0,17.78-13.88,19.81-13.88,19.81s-13.88-2-13.88-19.81c0-16.92,13.88-42.51,13.88-42.51S334.52,248.27,334.52,265.19Z" style="opacity: 0.1; transform-origin: 320.64px 253.84px;" class="animable"></path></g><g id="el9chdctmxyy6"><g style="opacity: 0.5; transform-origin: 320.633px 212.676px;" class="animable"><path d="M377.67,248.94a3.21,3.21,0,0,0,1.53-3.51,4.32,4.32,0,0,0-2.36-2.74,3.21,3.21,0,0,0-4,1.89c-.5,1.19.21,3.06,1.28,4A3,3,0,0,0,377.67,248.94Z" style="fill: rgb(248, 224, 188); transform-origin: 375.98px 245.944px;" id="elpc8bai1ao0d" class="animable"></path><path d="M373.38,264.44A1.31,1.31,0,0,0,374,263a1.75,1.75,0,0,0-.95-1.11,1.31,1.31,0,0,0-1.61.76,1.65,1.65,0,0,0,.52,1.62A1.22,1.22,0,0,0,373.38,264.44Z" style="fill: rgb(248, 224, 188); transform-origin: 372.716px 263.211px;" id="elx4duysc03n" class="animable"></path><path d="M370.72,176.3a1.32,1.32,0,0,0,.62-1.42,1.75,1.75,0,0,0-.95-1.11,1.31,1.31,0,0,0-1.61.76,1.65,1.65,0,0,0,.52,1.62A1.22,1.22,0,0,0,370.72,176.3Z" style="fill: rgb(248, 224, 188); transform-origin: 370.053px 175.085px;" id="el2vgvwi4i0cb" class="animable"></path><path d="M352.68,263a2.1,2.1,0,0,0,1-2.3,2.82,2.82,0,0,0-1.54-1.79,2.1,2.1,0,0,0-2.6,1.24,2.66,2.66,0,0,0,.83,2.62A2,2,0,0,0,352.68,263Z" style="fill: rgb(248, 224, 188); transform-origin: 351.601px 261.037px;" id="el6nasydhqwq4" class="animable"></path><path d="M272.42,228.27a3.22,3.22,0,0,0,.6,3.78,4.3,4.3,0,0,0,3.46,1,3.2,3.2,0,0,0,2.33-3.72c-.21-1.28-1.81-2.47-3.22-2.7A3,3,0,0,0,272.42,228.27Z" style="fill: rgb(248, 224, 188); transform-origin: 275.465px 229.845px;" id="elf72g4s9cg7m" class="animable"></path><path d="M262.13,174.43a1.28,1.28,0,0,0,.25,1.52,1.71,1.71,0,0,0,1.39.43,1.3,1.3,0,0,0,.94-1.51,1.62,1.62,0,0,0-1.3-1.09A1.24,1.24,0,0,0,262.13,174.43Z" style="fill: rgb(248, 224, 188); transform-origin: 263.359px 175.082px;" id="elvztvsdqlijt" class="animable"></path><path d="M273.48,161.83a2.08,2.08,0,0,0,.39,2.47,2.84,2.84,0,0,0,2.26.69,2.12,2.12,0,0,0,1.53-2.44,2.66,2.66,0,0,0-2.12-1.77A2,2,0,0,0,273.48,161.83Z" style="fill: rgb(248, 224, 188); transform-origin: 275.467px 162.887px;" id="eltb0k0r7a8r" class="animable"></path></g></g><path d="M218.25,420.55a6.4,6.4,0,0,1-6.4,6.4H138.07a6.4,6.4,0,0,1-6.4-6.4,6.41,6.41,0,0,1,6.4-6.4h2.64V319.77h68.5v94.38h2.64a6.42,6.42,0,0,1,6.4,6.4Z" style="fill: rgb(248, 224, 188); transform-origin: 174.96px 373.36px;" id="ele9zkdm8xggb" class="animable"></path><g id="el4bgns0lhh2x"><g style="opacity: 0.8; transform-origin: 174.96px 373.36px;" class="animable"><path d="M218.25,420.55a6.4,6.4,0,0,1-6.4,6.4H138.07a6.4,6.4,0,0,1-6.4-6.4,6.41,6.41,0,0,1,6.4-6.4h2.64V319.77h68.5v94.38h2.64a6.42,6.42,0,0,1,6.4,6.4Z" style="fill: rgb(255, 255, 255); transform-origin: 174.96px 373.36px;" id="elll7qnk1z26" class="animable"></path></g></g><g id="elk5crvmdmnqj"><path d="M218.25,420.55a6.4,6.4,0,0,1-6.4,6.4H138.07l27.32-6.37A37.6,37.6,0,0,0,194.23,388l7.35-68.22h7.63v94.38h2.64a6.42,6.42,0,0,1,6.4,6.4Z" style="fill: rgb(248, 224, 188); opacity: 0.2; transform-origin: 178.16px 373.365px;" class="animable"></path></g><g id="el01cmlbalbncx"><g style="opacity: 0.2; transform-origin: 174.95px 372.31px;" class="animable"><path d="M147.9,319.77c.66,33.76.65,71.29,0,105.08-.65-33.79-.66-71.31,0-105.08Z" style="fill: rgb(248, 224, 188); transform-origin: 147.9px 372.31px;" id="elycowlqmk62f" class="animable"></path><path d="M188.65,319.77c.67,33.76.65,71.29,0,105.08-.64-33.79-.66-71.31,0-105.08Z" style="fill: rgb(248, 224, 188); transform-origin: 188.654px 372.31px;" id="elxpbh5wq7vz" class="animable"></path><path d="M160.89,325.76c.68,25.54.68,51.24,0,76.78-.67-25.55-.67-51.24,0-76.78Z" style="fill: rgb(248, 224, 188); transform-origin: 160.894px 364.15px;" id="elybrg4wyyodf" class="animable"></path><path d="M202,319.77c.65,26.64.66,56.12,0,82.77-.66-26.65-.66-56.13,0-82.77Z" style="fill: rgb(248, 224, 188); transform-origin: 201.998px 361.155px;" id="el13siscvhbt5" class="animable"></path><path d="M154.58,319.77c.67,22.26.67,44.68,0,66.94-.67-22.27-.67-44.67,0-66.94Z" style="fill: rgb(248, 224, 188); transform-origin: 154.58px 353.24px;" id="ele1tvaqkw39a" class="animable"></path><path d="M183.24,319.77c.67,22.26.67,44.68,0,66.94-.67-22.27-.67-44.67,0-66.94Z" style="fill: rgb(248, 224, 188); transform-origin: 183.24px 353.24px;" id="elyqwdsg8nis" class="animable"></path></g></g><path d="M136.53,320.19v51.29a6.62,6.62,0,0,0,6.58,6.67,6.41,6.41,0,0,0,6.23-6.4V354a6.41,6.41,0,0,0,12.81,0V339.14a6.39,6.39,0,0,1,6.28-6.39,6.63,6.63,0,0,1,6.53,6.68v64.63a6.62,6.62,0,0,0,6.58,6.67,6.31,6.31,0,0,0,4.35-1.88,6.39,6.39,0,0,0,1.88-4.53V335.26a6.41,6.41,0,0,1,12.81,0v36.22a6.62,6.62,0,0,0,6.58,6.67,6.41,6.41,0,0,0,6.23-6.4V320.19a5.18,5.18,0,0,0-5.18-5.19H141.72A5.19,5.19,0,0,0,136.53,320.19Z" style="fill: rgb(248, 224, 188); transform-origin: 174.96px 362.865px;" id="elinnr1k03yi" class="animable"></path><g id="elu25lqxqflba"><g style="opacity: 0.8; transform-origin: 174.96px 362.865px;" class="animable"><path d="M136.53,320.19v51.29a6.62,6.62,0,0,0,6.58,6.67,6.41,6.41,0,0,0,6.23-6.4V354a6.41,6.41,0,0,0,12.81,0V339.14a6.39,6.39,0,0,1,6.28-6.39,6.63,6.63,0,0,1,6.53,6.68v64.63a6.62,6.62,0,0,0,6.58,6.67,6.31,6.31,0,0,0,4.35-1.88,6.39,6.39,0,0,0,1.88-4.53V335.26a6.41,6.41,0,0,1,12.81,0v36.22a6.62,6.62,0,0,0,6.58,6.67,6.41,6.41,0,0,0,6.23-6.4V320.19a5.18,5.18,0,0,0-5.18-5.19H141.72A5.19,5.19,0,0,0,136.53,320.19Z" style="fill: rgb(255, 255, 255); transform-origin: 174.96px 362.865px;" id="el8eitotth8xo" class="animable"></path></g></g><path d="M140.71,377.72c4.41,1.72,9-2.21,8.44-6.78l0-1.88L149,354h.77a6,6,0,0,0,4.84,5.79,5.92,5.92,0,0,0,7-5.47c0-1.45,0-5,0-6.55l-.06-8.79a7.15,7.15,0,0,1,5.78-6.9c5.43-.95,9.12,4,8.54,9.06,0,9,.09,38.83.12,48.28,0,3.88,0,11.42.07,15.24a5.42,5.42,0,0,0,10.82-.58c0-18.32.08-47.79.22-65.83a26.55,26.55,0,0,1,.19-4.53c1.94-8.08,13.7-6.95,13.94,1.41,0,.66,0,2.6,0,3.3,0,2.74-.08,10.32-.11,13.16l-.2,17.56a13.87,13.87,0,0,0,.27,4.29,6.25,6.25,0,0,0,10.41,2.8,6.44,6.44,0,0,1-3.88,1.91c-3.86.51-7.33-3-7.26-6.81l0-2.19-.2-17.56c0-4-.11-11.4-.13-15.36.65-7.47-9.47-9.47-11.39-2.21l.12,70.06a7.33,7.33,0,0,1-14,3.22,9.88,9.88,0,0,1-.73-4.72v-4.39l0-8.77c0-9.63.08-39.14.12-48.28a9.86,9.86,0,0,0-.42-4,5.63,5.63,0,0,0-9.5-1.69,5.72,5.72,0,0,0-1.38,3.58l-.06,8.76c0,1.62-.06,5-.06,6.62-.77,8.82-13.56,8.49-13.75-.4h.77l-.17,15,0,1.88c.49,4.73-4.37,8.68-8.82,6.78Z" style="fill: rgb(248, 224, 188); transform-origin: 176.155px 369.909px;" id="eliz8fl2173wr" class="animable"></path><g id="elf1ipx95k6pu"><g style="opacity: 0.6; transform-origin: 146.027px 329.933px;" class="animable"><path d="M141,327.42c-3.86,4-1.42,15.43,3.56,15.08,4.08-.29,6.54-4.79,7-7.81s-.49-7.14-3.44-8.43A7,7,0,0,0,141,327.42Z" style="fill: rgb(255, 255, 255); transform-origin: 145.385px 334.134px;" id="el6vkiup9bt7t" class="animable"></path><path d="M146.08,321.25c.37,2.15,4.47,2.88,6.11,1.32s.37-4.73-1.29-5.16S145.74,319.32,146.08,321.25Z" style="fill: rgb(255, 255, 255); transform-origin: 149.505px 320.382px;" id="elx46oznwwjkf" class="animable"></path></g></g><g id="elrvz860o4qd"><path d="M165,172.83c44.28-6.09,70.25,17.92,77.62,35.76s14.89,51.51-3.23,73.64C222.23,303.14,182.93,328,137,307.1c-26.25-12-38.48-51.8-31.19-81.86A70.14,70.14,0,0,1,165,172.83Z" style="fill: rgb(248, 224, 188); opacity: 0.1; transform-origin: 177.18px 243.432px;" class="animable"></path></g><g id="elx8zcevpo88q"><path d="M222.07,285.05c-21.86,28.22-50.1,29-64.28,23s-37.28-21.08-39.31-43.83c-1.91-21.5,6.61-57.67,44.51-71.38,21.67-7.85,50.91,8.06,63.55,29.3A56,56,0,0,1,222.07,285.05Z" style="fill: rgb(248, 224, 188); opacity: 0.1; transform-origin: 176.187px 250.932px;" class="animable"></path></g><path d="M195.16,286.18C195.16,312,175,315,175,315s-20.19-3-20.19-28.82c0-24.62,20.19-61.84,20.19-61.84S195.16,261.56,195.16,286.18Z" style="fill: rgb(248, 224, 188); transform-origin: 174.985px 269.67px;" id="el7gflsucfv2" class="animable"></path><g id="eljoolrmblf4m"><path d="M188.84,295.19C188.84,313,175,315,175,315s-13.88-2-13.88-19.81c0-16.92,13.88-42.51,13.88-42.51S188.84,278.27,188.84,295.19Z" style="opacity: 0.1; transform-origin: 174.98px 283.84px;" class="animable"></path></g><g id="elfg5jployb05"><g style="opacity: 0.5; transform-origin: 174.962px 242.679px;" class="animable"><path d="M232,278.94a3.2,3.2,0,0,0,1.53-3.51,4.29,4.29,0,0,0-2.36-2.74,3.21,3.21,0,0,0-4,1.89c-.51,1.19.2,3.06,1.27,4A3,3,0,0,0,232,278.94Z" style="fill: rgb(248, 224, 188); transform-origin: 230.308px 275.946px;" id="elt1s02p5e9hc" class="animable"></path><path d="M227.71,294.44a1.29,1.29,0,0,0,.61-1.42,1.73,1.73,0,0,0-.95-1.11,1.29,1.29,0,0,0-1.6.76,1.62,1.62,0,0,0,.51,1.62A1.24,1.24,0,0,0,227.71,294.44Z" style="fill: rgb(248, 224, 188); transform-origin: 227.038px 293.224px;" id="el60nhlegiv6q" class="animable"></path><path d="M225.05,206.3a1.29,1.29,0,0,0,.61-1.42,1.73,1.73,0,0,0-.95-1.11,1.29,1.29,0,0,0-1.6.76,1.62,1.62,0,0,0,.51,1.62A1.24,1.24,0,0,0,225.05,206.3Z" style="fill: rgb(248, 224, 188); transform-origin: 224.378px 205.084px;" id="elujj6v78eg1m" class="animable"></path><path d="M207,293a2.1,2.1,0,0,0,1-2.3,2.82,2.82,0,0,0-1.54-1.79,2.09,2.09,0,0,0-2.59,1.24,2.62,2.62,0,0,0,.83,2.62A2,2,0,0,0,207,293Z" style="fill: rgb(248, 224, 188); transform-origin: 205.923px 291.035px;" id="eljrecyz5ute" class="animable"></path><path d="M126.75,258.27a3.19,3.19,0,0,0,.6,3.78,4.26,4.26,0,0,0,3.45,1,3.22,3.22,0,0,0,2.34-3.72c-.21-1.28-1.82-2.47-3.23-2.7A3,3,0,0,0,126.75,258.27Z" style="fill: rgb(248, 224, 188); transform-origin: 129.789px 259.847px;" id="ela79e9b96tn9" class="animable"></path><path d="M116.46,204.43a1.28,1.28,0,0,0,.24,1.52,1.72,1.72,0,0,0,1.4.43,1.31,1.31,0,0,0,.94-1.51,1.65,1.65,0,0,0-1.31-1.09A1.22,1.22,0,0,0,116.46,204.43Z" style="fill: rgb(248, 224, 188); transform-origin: 117.687px 205.082px;" id="elgn68d8iwvis" class="animable"></path><path d="M127.8,191.83a2.1,2.1,0,0,0,.39,2.47,2.84,2.84,0,0,0,2.26.69,2.11,2.11,0,0,0,1.53-2.44,2.66,2.66,0,0,0-2.11-1.77A2,2,0,0,0,127.8,191.83Z" style="fill: rgb(248, 224, 188); transform-origin: 129.79px 192.886px;" id="elh8jw4rwz10f" class="animable"></path></g></g><path d="M398.42,427s-11.23,34.52-18.92,34.52h-259c-7.7,0-18.91-34.52-18.91-34.52Z" style="fill: rgb(38, 50, 56); transform-origin: 250.005px 444.26px;" id="elcujbdd443f" class="animable"></path><g id="el8fkhct6t72r"><path d="M240,53.78c44.28-6.09,70.25,17.92,77.62,35.76s14.88,51.51-3.23,73.64C297.26,184.09,258,209,212,188.05c-26.24-12-38.47-51.8-31.18-81.86A70.13,70.13,0,0,1,240,53.78Z" style="fill: rgb(248, 224, 188); opacity: 0.1; transform-origin: 252.183px 124.393px;" class="animable"></path></g><g id="elf8j5tcmkh1k"><path d="M297.11,166c-21.87,28.22-50.11,29-64.29,23s-37.28-21.08-39.3-43.83c-1.92-21.5,6.61-57.67,44.51-71.38,21.66-7.84,50.91,8.07,63.55,29.3A56,56,0,0,1,297.11,166Z" style="fill: rgb(248, 224, 188); opacity: 0.1; transform-origin: 251.226px 131.884px;" class="animable"></path></g><path d="M270.19,167.13C270.19,193,250,196,250,196s-20.19-3-20.19-28.83c0-24.61,20.19-61.84,20.19-61.84S270.19,142.52,270.19,167.13Z" style="fill: rgb(248, 224, 188); transform-origin: 250px 150.665px;" id="elnddwv7z69v" class="animable"></path><g id="elgo0dee2joc9"><path d="M263.88,176.14C263.88,193.92,250,196,250,196s-13.88-2-13.88-19.82c0-16.92,13.88-42.5,13.88-42.5S263.88,159.22,263.88,176.14Z" style="opacity: 0.1; transform-origin: 250px 164.84px;" class="animable"></path></g><g id="elt7ygi0cvcee"><g style="opacity: 0.5; transform-origin: 250.021px 123.64px;" class="animable"><path d="M193,159.9a3.22,3.22,0,0,1-1.53-3.52,4.32,4.32,0,0,1,2.36-2.74,3.22,3.22,0,0,1,4,1.89c.5,1.19-.21,3.06-1.28,4A3.06,3.06,0,0,1,193,159.9Z" style="fill: rgb(248, 224, 188); transform-origin: 194.69px 156.892px;" id="eltmco78x359" class="animable"></path><path d="M197.26,175.39a1.31,1.31,0,0,1-.62-1.42,1.75,1.75,0,0,1,1-1.11,1.31,1.31,0,0,1,1.61.76,1.66,1.66,0,0,1-.52,1.63A1.24,1.24,0,0,1,197.26,175.39Z" style="fill: rgb(248, 224, 188); transform-origin: 197.951px 174.184px;" id="el048t0zxb9fqm" class="animable"></path><path d="M199.92,87.25a1.31,1.31,0,0,1-.62-1.42,1.75,1.75,0,0,1,.95-1.11,1.31,1.31,0,0,1,1.61.76,1.66,1.66,0,0,1-.52,1.63A1.24,1.24,0,0,1,199.92,87.25Z" style="fill: rgb(248, 224, 188); transform-origin: 200.586px 86.0349px;" id="el47di14m6chn" class="animable"></path><path d="M218,173.91a2.1,2.1,0,0,1-1-2.3,2.82,2.82,0,0,1,1.54-1.79,2.11,2.11,0,0,1,2.6,1.24,2.66,2.66,0,0,1-.83,2.62A2,2,0,0,1,218,173.91Z" style="fill: rgb(248, 224, 188); transform-origin: 219.079px 171.948px;" id="elkehyjpdkqm" class="animable"></path><path d="M298.22,139.22a3.22,3.22,0,0,1-.6,3.78,4.34,4.34,0,0,1-3.46,1.05,3.21,3.21,0,0,1-2.33-3.73c.21-1.27,1.81-2.47,3.22-2.7A3,3,0,0,1,298.22,139.22Z" style="fill: rgb(248, 224, 188); transform-origin: 295.175px 140.834px;" id="elohjx0o57ka" class="animable"></path><path d="M308.51,85.38a1.3,1.3,0,0,1-.25,1.53,1.74,1.74,0,0,1-1.39.42,1.3,1.3,0,0,1-.94-1.51,1.62,1.62,0,0,1,1.3-1.09A1.24,1.24,0,0,1,308.51,85.38Z" style="fill: rgb(248, 224, 188); transform-origin: 307.28px 86.0314px;" id="elcvotv7orcrr" class="animable"></path><path d="M297.16,72.78a2.08,2.08,0,0,1-.39,2.47,2.84,2.84,0,0,1-2.26.69A2.12,2.12,0,0,1,293,73.5a2.68,2.68,0,0,1,2.12-1.77A2,2,0,0,1,297.16,72.78Z" style="fill: rgb(248, 224, 188); transform-origin: 295.183px 73.8383px;" id="ellokta3d04d8" class="animable"></path></g></g><path d="M293.29,420.55a6.4,6.4,0,0,1-6.4,6.4H213.11a6.4,6.4,0,0,1-6.4-6.4,6.41,6.41,0,0,1,6.4-6.4h2.64V201.06h68.5V414.15h2.64a6.42,6.42,0,0,1,6.4,6.4Z" style="fill: rgb(248, 224, 188); transform-origin: 250px 314.005px;" id="elmkylejnj1vl" class="animable"></path><g id="eljewj58dhnx8"><g style="opacity: 0.6; transform-origin: 250px 314.005px;" class="animable"><path d="M293.29,420.55a6.4,6.4,0,0,1-6.4,6.4H213.11a6.4,6.4,0,0,1-6.4-6.4,6.41,6.41,0,0,1,6.4-6.4h2.64V201.06h68.5V414.15h2.64a6.42,6.42,0,0,1,6.4,6.4Z" style="fill: rgb(255, 255, 255); transform-origin: 250px 314.005px;" id="eln724xvusz7s" class="animable"></path></g></g><g id="el59snn0f7qjm"><path d="M293.29,420.55a6.4,6.4,0,0,1-6.4,6.4H217.12l27.31-7.65A28.26,28.26,0,0,0,265,393.69l8.63-192.63h10.6V414.15h2.64a6.42,6.42,0,0,1,6.4,6.4Z" style="fill: rgb(248, 224, 188); opacity: 0.2; transform-origin: 255.205px 314.005px;" class="animable"></path></g><g id="elslzpmkr423g"><g style="opacity: 0.2; transform-origin: 250.002px 292.115px;" class="animable"><path d="M222.94,201.06c.65,58.33.65,123.78,0,182.11-.66-58.33-.65-123.78,0-182.11Z" style="fill: rgb(248, 224, 188); transform-origin: 222.938px 292.115px;" id="el3dift5todrr" class="animable"></path><path d="M263.69,201.06c.65,58.33.66,123.78,0,182.11-.66-58.33-.65-123.78,0-182.11Z" style="fill: rgb(248, 224, 188); transform-origin: 263.69px 292.115px;" id="elba17taj9ouv" class="animable"></path><path d="M235.93,201.06c.66,42.76.65,90.29,0,133.07-.65-42.79-.66-90.3,0-133.07Z" style="fill: rgb(248, 224, 188); transform-origin: 235.93px 267.595px;" id="el3xlu97qkezx" class="animable"></path><path d="M277.06,201.06c.67,42.76.65,90.29,0,133.07-.64-42.79-.66-90.3,0-133.07Z" style="fill: rgb(248, 224, 188); transform-origin: 277.064px 267.595px;" id="ellbk0bvzx31j" class="animable"></path><path d="M229.62,201.06c.66,32.39.65,68.39,0,100.8-.65-32.41-.67-68.41,0-100.8Z" style="fill: rgb(248, 224, 188); transform-origin: 229.618px 251.46px;" id="el5lhgnf4h4jb" class="animable"></path><path d="M258.27,201.06c.67,32.39.65,68.39,0,100.8-.64-32.41-.66-68.41,0-100.8Z" style="fill: rgb(248, 224, 188); transform-origin: 258.274px 251.46px;" id="el0nevkcbga05j" class="animable"></path></g></g><path d="M289.16,201.65v39.19a6.58,6.58,0,0,1-6.21,6.67,6.41,6.41,0,0,1-6.6-6.4v20.65a6.54,6.54,0,0,1-5.56,6.56,6.4,6.4,0,0,1-7.24-6.35V224.81a6.58,6.58,0,0,0-6.22-6.67,6.4,6.4,0,0,0-6.58,6.4v2a6.4,6.4,0,0,1-12.8,0V216.43a6.58,6.58,0,0,0-6.22-6.67,6.4,6.4,0,0,0-6.58,6.4v25a6.41,6.41,0,0,1-6.6,6.4,6.58,6.58,0,0,1-6.21-6.67V201.65A5.68,5.68,0,0,1,218,196h65.45A5.69,5.69,0,0,1,289.16,201.65Z" style="fill: rgb(248, 224, 188); transform-origin: 250.75px 232.188px;" id="eljlcvz14pvz" class="animable"></path><g id="eli6u2ehqdmw"><g style="opacity: 0.6; transform-origin: 250.75px 232.188px;" class="animable"><path d="M289.16,201.65v39.19a6.58,6.58,0,0,1-6.21,6.67,6.41,6.41,0,0,1-6.6-6.4v20.65a6.54,6.54,0,0,1-5.56,6.56,6.4,6.4,0,0,1-7.24-6.35V224.81a6.58,6.58,0,0,0-6.22-6.67,6.4,6.4,0,0,0-6.58,6.4v2a6.4,6.4,0,0,1-12.8,0V216.43a6.58,6.58,0,0,0-6.22-6.67,6.4,6.4,0,0,0-6.58,6.4v25a6.41,6.41,0,0,1-6.6,6.4,6.58,6.58,0,0,1-6.21-6.67V201.65A5.68,5.68,0,0,1,218,196h65.45A5.69,5.69,0,0,1,289.16,201.65Z" style="fill: rgb(255, 255, 255); transform-origin: 250.75px 232.188px;" id="elmchugxvct7m" class="animable"></path></g></g><path d="M284.25,247.33a6.56,6.56,0,0,1-8.15-6.22h.49c.07,3.87.26,14,.3,17.72l0,2.95a7.07,7.07,0,0,1-13.57,3,7.82,7.82,0,0,1-.6-3.19l-.05-5.9L262.61,232l0-5.91a6.88,6.88,0,0,0-1.3-5,5.38,5.38,0,0,0-8.58.27c-1.13,1.53-1,3.2-1,5.11a7.34,7.34,0,1,1-14.65-.64c0-2.61.12-7.62,0-10.23a5.64,5.64,0,0,0-11.25.25c-.09,5.37-.18,15.31-.29,20.65a49,49,0,0,1-.26,5.94c-.85,4.11-5.94,6.43-9.5,4.22a6.31,6.31,0,0,0,9-4.32,51.6,51.6,0,0,0,0-5.84c-.09-3.76-.2-13.84-.25-17.72,0-2-.26-4.24.81-6.1a7.11,7.11,0,0,1,5.16-3.65c4.57-.85,8.68,3.47,8.29,7.94,0,2,0,6.94,0,8.86a5.54,5.54,0,0,0,8.79,5,5.48,5.48,0,0,0,2.17-4.34c-.08-2,0-4.48,1.31-6.22a7.33,7.33,0,0,1,9.09-2.48,8.12,8.12,0,0,1,4.31,8.28l0,5.91-.08,23.62-.06,5.9a6.35,6.35,0,0,0,.41,2.6,5.74,5.74,0,0,0,6.39,3.43,6,6,0,0,0,4.64-5.8l0-2.95.08-5.91.21-11.81h.49a6.35,6.35,0,0,0,7.66,6.22Z" style="fill: rgb(248, 224, 188); transform-origin: 250.015px 239px;" id="eltly7afmelv" class="animable"></path><g id="el6zjksc0rxbi"><g style="opacity: 0.6; transform-origin: 219.954px 208.151px;" class="animable"><path d="M215.75,206.06c-3.23,3.33-1.19,12.88,3,12.59,3.41-.24,5.46-4,5.88-6.52s-.41-6-2.87-7A5.87,5.87,0,0,0,215.75,206.06Z" style="fill: rgb(255, 255, 255); transform-origin: 219.447px 211.672px;" id="elwhgj8grvd5" class="animable"></path><path d="M220,200.91c.31,1.79,3.74,2.4,5.11,1.09s.31-3.94-1.08-4.31S219.73,199.29,220,200.91Z" style="fill: rgb(255, 255, 255); transform-origin: 222.865px 200.174px;" id="elortfob8fkxn" class="animable"></path></g></g></g><g id="freepik--Flowers--inject-163" class="animable" style="transform-origin: 250px 423.847px;"><path d="M280.13,408.12s9.85-5.63,16.05-3.9,6.82,9.55,6.81,13.29-4.89,7.05-5.27,9.91,7.33,5.31,4.9,12.4-10.34,10.44-14.51,11.38-14.33-7.54-14.33-7.54,5.21,12.1,4.65,19.11S271,475.47,268,476.12s-10.53-4.3-13.26-4.39-7,6.54-11.86,6.91-11-.75-12.74-3.94-.64-13.07-.64-13.07-5.21,9.58-12.17,7-4.85-16.67-8.35-20-14.34-8.85-13.26-15.6,8.07-11.44,9.79-11.48,7.84.89,7.84.89-20.21-9.37-13.59-18.69,15-9.48,18.58-12.4,4.15-11.79,8.35-14,8.56-3.18,12.91-1.71,7.23,13.45,7.23,13.45-.53-13,2.81-16.68,10.77-4.29,14.54-2.57,5.15,9.39,10.25,11.31,10.32-1.44,13.4.44,5.06,11.6,4.73,15.06S280.13,408.12,280.13,408.12Z" style="fill: rgb(248, 224, 188); transform-origin: 249.37px 423.815px;" id="el3nlmfc2kkrx" class="animable"></path><g id="el99tfbxwufli"><path d="M280.13,408.12s9.85-5.63,16.05-3.9,6.82,9.55,6.81,13.29-4.89,7.05-5.27,9.91,7.33,5.31,4.9,12.4-10.34,10.44-14.51,11.38-14.33-7.54-14.33-7.54,5.21,12.1,4.65,19.11S271,475.47,268,476.12s-10.53-4.3-13.26-4.39-7,6.54-11.86,6.91-11-.75-12.74-3.94-.64-13.07-.64-13.07-5.21,9.58-12.17,7-4.85-16.67-8.35-20-14.34-8.85-13.26-15.6,8.07-11.44,9.79-11.48,7.84.89,7.84.89-20.21-9.37-13.59-18.69,15-9.48,18.58-12.4,4.15-11.79,8.35-14,8.56-3.18,12.91-1.71,7.23,13.45,7.23,13.45-.53-13,2.81-16.68,10.77-4.29,14.54-2.57,5.15,9.39,10.25,11.31,10.32-1.44,13.4.44,5.06,11.6,4.73,15.06S280.13,408.12,280.13,408.12Z" style="opacity: 0.1; transform-origin: 249.37px 423.815px;" class="animable"></path></g><g id="elyg7e6fe963"><path d="M267.07,413.35s12.28-5.52,14.45.82-1.29,6,.07,10,2.59,5.05,1.4,7.41-5.29,2.08-5.79,4.32,1.93,5.29-1,8.71-16.06-2.89-16.06-2.89,5.12,11.93-.23,16.91c-2.73,2.54-6.32-2.15-8.12-2s-4.29,2.24-7.63,2.2-6.62-5.23-8.34-5.85-5.09,2.1-7.49.07c-5.29-4.48.21-10.77,4.25-14.2,0,0-13.87,1.87-15.2-1.5-2.46-6.25.9-7.88,1.24-11.24s-3.15-5.2-1.73-8.34,6.4-4.22,7.51-5.52-.8-9.1,3.09-11.53,12.9,2.15,12.9,2.15-.93-11.58,4.25-14,5.89,1.17,8.48,2.4,4.07-3.71,9-1.52c2.74,1.22,2.46,6.16,4.73,7.12s4.41.25,7,3.6S267.07,413.35,267.07,413.35Z" style="opacity: 0.1; transform-origin: 249.978px 423.718px;" class="animable"></path></g><path d="M259.18,417.57c2.84-2.78,10.4-9.52,5.82-11.8-2.78-1.39-4.51.5-7-1.6s-6.8-6-9.36-3.48-2.6,10.55-2.6,10.55-7.6-7.86-9.95-5.6-2.1,5.25-2,7.31-6.35,3-4.87,6S240,423.24,240,423.24,228.6,426,229.8,428.89s3.29,4.51,4,6.3.58,4.72,3.29,6.35,8.27-8.28,8.27-8.28-1.33,10,1.26,11.35,5.91-2.59,7.27-2.46,5,0,5.91-1.2c2.44-3-3-9.9-3-9.9S267.18,436,268,433.79s-1.58-4.53-.63-7.24,4.24-5.66,2.77-7.53C268,416.25,259.18,417.57,259.18,417.57Z" style="fill: rgb(248, 224, 188); transform-origin: 249.756px 422.381px;" id="elgtd68dg9jvm" class="animable"></path><path d="M298.22,459s-4.91,3.81-8.4,3.36-4.43-4.65-4.72-6.68,2.1-4.2,2.09-5.78-4.39-2.31-3.62-6.34,4.8-6.46,7-7.3,8.35,3,8.35,3-3.76-6.16-4-10,3.07-7.46,4.63-8,6,1.51,7.53,1.35,3.31-4.09,5.89-4.67,6-.44,7.21,1.15,1.36,7,1.36,7,2.08-5.59,6.06-4.74,3.92,8.65,6.08,10.2,8.45,3.69,8.39,7.43-3.49,6.83-4.41,7-4.32.13-4.32.13,11.68,3.51,8.82,9.08-7.39,6.3-9.12,8.16-1.33,6.71-3.43,8.24a8.8,8.8,0,0,1-6.87,1.93c-2.48-.46-5-6.73-5-6.73s1.3,7-.22,9.26-5.51,3.16-7.68,2.52-3.52-4.69-6.44-5.33-5.48,1.58-7.29.8-3.65-5.9-3.74-7.8S298.22,459,298.22,459Z" style="fill: rgb(248, 224, 188); transform-origin: 313.045px 448.199px;" id="elg0q8t6lwkd" class="animable"></path><g id="elv4zfqulq72m"><path d="M304.89,455.14s-6.23,3.94-7.9.68.24-3.34-.8-5.4-1.8-2.54-1.34-3.91,2.71-1.54,2.81-2.79-1.46-2.72-.15-4.8,8.92.32,8.92.32-3.69-6.07-1.18-9.18c1.28-1.59,3.59.68,4.56.46s2.15-1.55,4-1.79,4,2.32,5,2.53,2.6-1.53,4.06-.62c3.22,2,.72,5.85-1.2,8,0,0,7.37-2.09,8.35-.36,1.82,3.2.13,4.34.2,6.19s2.11,2.57,1.59,4.39-3.15,2.78-3.65,3.57,1.14,4.87-.78,6.49-7.15-.17-7.15-.17,1.4,6.21-1.22,8-3.28-.18-4.79-.65-1.91,2.33-4.76,1.53c-1.58-.45-1.81-3.15-3.11-3.5s-2.42.21-4.09-1.4S304.89,455.14,304.89,455.14Z" style="opacity: 0.1; transform-origin: 313.304px 448.244px;" class="animable"></path></g><path d="M308.84,452.24c-1.32,1.73-4.9,6-2.24,6.85,1.62.54,2.41-.62,3.91.33s4.15,2.71,5.34,1.16.6-5.93.6-5.93,4.72,3.67,5.82,2.27a4.72,4.72,0,0,0,.51-4.12c-.23-1.11,3.21-2.11,2.17-3.65s-6.12-1.47-6.12-1.47,5.94-2.38,5.06-3.86-2.13-2.19-2.65-3.1-.68-2.52-2.27-3.19-3.84,5.13-3.84,5.13-.06-5.52-1.57-6.06-3,1.87-3.75,1.9-2.69.4-3.11,1.11c-1.08,1.84,2.41,5.13,2.41,5.13s-6-1.87-6.33-.6,1.21,2.33.9,3.87-1.85,3.4-.91,4.29C304.17,453.64,308.84,452.24,308.84,452.24Z" style="fill: rgb(248, 224, 188); transform-origin: 313.808px 448.858px;" id="eld9f28ufm7u5" class="animable"></path><path d="M201.78,459s4.91,3.81,8.4,3.36,4.43-4.65,4.72-6.68-2.1-4.2-2.09-5.78,4.39-2.31,3.62-6.34-4.8-6.46-7-7.3-8.35,3-8.35,3,3.76-6.16,4-10-3.07-7.46-4.63-8-6,1.51-7.53,1.35-3.31-4.09-5.89-4.67-6-.44-7.21,1.15-1.36,7-1.36,7-2.08-5.59-6.06-4.74-3.92,8.65-6.08,10.2-8.45,3.69-8.39,7.43,3.49,6.83,4.41,7,4.32.13,4.32.13-11.68,3.51-8.82,9.08,7.39,6.3,9.12,8.16,1.33,6.71,3.43,8.24a8.8,8.8,0,0,0,6.87,1.93c2.48-.46,5-6.73,5-6.73s-1.3,7,.22,9.26,5.51,3.16,7.68,2.52,3.52-4.69,6.44-5.33,5.48,1.58,7.29.8,3.65-5.9,3.74-7.8S201.78,459,201.78,459Z" style="fill: rgb(248, 224, 188); transform-origin: 186.955px 448.199px;" id="elxxowvd9alb" class="animable"></path><g id="eliwu6msno19"><path d="M195.11,455.14s6.23,3.94,7.9.68-.24-3.34.8-5.4,1.8-2.54,1.34-3.91-2.71-1.54-2.81-2.79,1.46-2.72.15-4.8-8.92.32-8.92.32,3.69-6.07,1.18-9.18c-1.28-1.59-3.59.68-4.56.46s-2.15-1.55-4-1.79-4,2.32-5,2.53-2.6-1.53-4.06-.62c-3.22,2-.72,5.85,1.2,8,0,0-7.37-2.09-8.35-.36-1.82,3.2-.13,4.34-.2,6.19s-2.11,2.57-1.59,4.39,3.15,2.78,3.65,3.57-1.14,4.87.78,6.49,7.15-.17,7.15-.17-1.4,6.21,1.22,8,3.28-.18,4.79-.65,1.91,2.33,4.76,1.53c1.58-.45,1.81-3.15,3.11-3.5s2.42.21,4.09-1.4S195.11,455.14,195.11,455.14Z" style="opacity: 0.1; transform-origin: 186.696px 448.244px;" class="animable"></path></g><path d="M191.16,452.24c1.32,1.73,4.9,6,2.24,6.85-1.62.54-2.41-.62-3.91.33s-4.15,2.71-5.34,1.16-.6-5.93-.6-5.93-4.72,3.67-5.82,2.27a4.72,4.72,0,0,1-.51-4.12c.23-1.11-3.21-2.11-2.17-3.65s6.12-1.47,6.12-1.47-5.94-2.38-5.06-3.86,2.13-2.19,2.65-3.1.68-2.52,2.27-3.19,3.84,5.13,3.84,5.13.06-5.52,1.57-6.06,3,1.87,3.75,1.9,2.69.4,3.11,1.11c1.08,1.84-2.41,5.13-2.41,5.13s6-1.87,6.33-.6-1.21,2.33-.9,3.87,1.85,3.4.91,4.29C195.83,453.64,191.16,452.24,191.16,452.24Z" style="fill: rgb(248, 224, 188); transform-origin: 186.192px 448.858px;" id="el4ose6vbk0fr" class="animable"></path></g><defs>     <filter id="active" height="200%">         <feMorphology in="SourceAlpha" result="DILATED" operator="dilate" radius="2"></feMorphology>                <feFlood flood-color="#32DFEC" flood-opacity="1" result="PINK"></feFlood>        <feComposite in="PINK" in2="DILATED" operator="in" result="OUTLINE"></feComposite>        <feMerge>            <feMergeNode in="OUTLINE"></feMergeNode>            <feMergeNode in="SourceGraphic"></feMergeNode>        </feMerge>    </filter>    <filter id="hover" height="200%">        <feMorphology in="SourceAlpha" result="DILATED" operator="dilate" radius="2"></feMorphology>                <feFlood flood-color="#ff0000" flood-opacity="0.5" result="PINK"></feFlood>        <feComposite in="PINK" in2="DILATED" operator="in" result="OUTLINE"></feComposite>        <feMerge>            <feMergeNode in="OUTLINE"></feMergeNode>            <feMergeNode in="SourceGraphic"></feMergeNode>        </feMerge>            <feColorMatrix type="matrix" values="0   0   0   0   0                0   1   0   0   0                0   0   0   0   0                0   0   0   1   0 "></feColorMatrix>    </filter></defs></svg>